<?xml version="1.0" standalone="no"?>
<!DOCTYPE svg PUBLIC "-//W3C//DTD SVG 1.1//EN"
  "http://www.w3.org/Graphics/SVG/1.1/DTD/svg11.dtd">
<!-- Created with matplotlib (http://matplotlib.sourceforge.net/) -->
<svg width="1728pt" height="891pt" viewBox="0 0 1728 891"
   xmlns="http://www.w3.org/2000/svg"
   xmlns:xlink="http://www.w3.org/1999/xlink"
   version="1.1"
   id="svg1">
<filter id="colorAdd"><feComposite in="SourceGraphic" in2="BackgroundImage" operator="arithmetic" k2="1" k3="1"/></filter>
<g id="figure1">
<g id="patch1">
<path style="fill: #ffffff; stroke: #ffffff; stroke-width: 1.000000; stroke-linejoin: round; stroke-linecap: square;  opacity: 1.000000"  d="M0.000000 891.000000L1728.000000 891.000000L1728.000000 0.000000
L0.000000 0.000000z"/>
</g>
<g id="axes1">
<g id="patch2">
<path style="fill: #ffffff; opacity: 1.000000"  d="M216.000000 801.900000L1555.200000 801.900000L1555.200000 89.100000
L216.000000 89.100000z"/>
</g>
<g id="line2d1">
<defs>
  <clipPath id="p80f05d78e10eae31a502a9fc5631256d">
<rect x="216.000000" y="89.100000" width="1339.200000" height="712.800000"/>
  </clipPath>
</defs><path style="fill: none; stroke: #0000ff; stroke-width: 1.000000; stroke-linejoin: round; stroke-linecap: square;  opacity: 1.000000" clip-path="url(#p80f05d78e10eae31a502a9fc5631256d)" d="M216.000000 496.414286L216.267840 750.985714L216.535680 666.128571
L216.803520 496.414286L217.071360 496.414286L217.339200 411.557143
L217.607040 496.414286L217.874880 432.771429L218.142720 439.842857
L218.410560 394.585714L218.678400 403.842857L218.946240 369.128571
L219.214080 378.919780L219.481920 350.944898L220.017600 369.128571
L220.285440 406.565546L220.553280 411.557143L220.821120 389.226316
L221.088960 420.042857L221.892480 430.004348L222.160320 432.771429
L222.696000 398.502198L222.963840 420.985714L223.231680 423.679592
L223.499520 408.631034L223.767360 428.528571L224.303040 432.771429
L224.570880 419.271429L225.106560 423.679592L225.374400 411.557143
L226.445760 420.042857L226.713600 421.905575L227.249280 401.690033
L227.784960 405.900000L228.052800 418.936025L228.856320 392.507580
L229.392000 396.582353L229.659840 388.710989L229.927680 390.743127
L230.195520 383.271429L230.731200 387.312245L230.999040 380.293985
L231.266880 382.296059L231.534720 375.600726L231.802560 377.614286
L232.070400 371.215222L232.873920 377.083929L233.141760 371.086813
L233.677440 374.827932L234.213120 363.594410L234.480960 372.765306
L235.016640 376.200000L235.284480 370.872211L235.552320 372.568726
L235.820160 367.431429L236.088000 369.128571L236.355840 377.393878
L236.891520 380.407052L237.159360 388.221429L237.427200 383.271429
L237.695040 390.860279L239.034240 367.665517L239.302080 374.914286
L240.105600 362.134851L240.373440 369.128571L240.641280 370.497235
L241.444800 358.521429L241.980480 371.726239L242.784000 375.429844
L243.051840 371.624370L243.319680 372.835922L243.587520 378.919780
L243.855360 380.038776L244.123200 385.939892L244.391040 386.972363
L244.658880 392.700000L245.194560 394.585714L245.730240 387.312245
L245.998080 392.783439L247.069440 378.919780L247.337280 379.915496
L247.605120 376.615966L247.872960 377.614286L248.408640 371.215222
L248.944320 373.234562L249.212160 370.146857L249.480000 371.148980
L250.283520 362.221595L250.819200 364.270338L251.622720 355.830064
L252.158400 365.384874L252.694080 359.904969L253.229760 361.855102
L254.033280 353.996703L254.568960 355.961084L255.104640 350.944898
L255.372480 351.927799L255.908160 347.065714L256.176000 351.426585
L256.711680 353.321849L256.979520 350.944898L257.247360 351.883410
L257.515200 349.546154L257.783040 353.724568L258.050880 354.627667
L258.318720 352.317251L258.586560 353.217857L259.122240 348.700000
L259.925760 351.385714L260.193600 349.192255L260.729280 350.944898
L261.264960 346.666387L261.532800 347.542105L261.800640 345.447508
L262.336320 347.182759L262.872000 354.664286L264.479040 342.552433
L264.746880 346.175410L265.014720 346.991925L265.282560 345.047490
L265.550400 348.598618L266.353920 342.863265L266.621760 346.351128
L267.693120 349.445214L267.960960 352.809890L268.764480 347.271429
L269.032320 350.579397L269.835840 345.183734L270.103680 348.436805
L270.371520 346.666387L270.639360 347.396864L271.442880 342.202747
L271.978560 348.520408L272.246400 349.221327L272.514240 347.514016
L273.049920 348.905607L273.317760 347.223588L273.585600 350.271429
L274.656960 352.928571L274.924800 351.274014L275.192640 354.221236
L275.728320 355.490816L275.996160 353.854286L276.264000 354.485082
L277.603200 346.536735L277.871040 347.182759L278.138880 345.638075
L278.406720 346.282418L278.942400 343.239952L279.210240 346.034539
L279.478080 344.527131L279.745920 345.162642L280.013760 343.671429
L280.281600 344.305216L280.549440 342.829870L281.085120 344.088759
L281.352960 346.788630L281.888640 348.000174L282.424320 345.102754
L283.227840 346.904082L284.031360 354.652941L284.834880 350.381063
L285.638400 352.059606L285.906240 350.667285L286.174080 351.221456
L287.245440 345.769021L287.513280 346.331130L287.781120 344.996336
L288.584640 346.666387L288.852480 345.349922L289.120320 345.901251
L291.263040 335.727356L291.530880 336.295154L291.798720 338.651710
L292.066560 337.418797L292.334400 337.974725L292.870080 335.539286
L293.405760 336.648768L294.477120 331.895335L294.744960 332.453027
L295.012800 331.286873L295.548480 332.395110L296.084160 330.094286
L296.352000 330.646844L299.566080 317.482291L299.833920 318.052138
L300.101760 320.234694L300.637440 321.346237L300.905280 320.295687
L301.440960 321.396429L301.976640 319.321118L302.780160 320.955824
L303.048000 319.932252L303.315840 320.471953L303.583680 319.456098
L304.655040 321.588124L304.922880 323.642085L305.726400 325.184694
L305.994240 327.203603L306.529920 325.198104L306.797760 325.701681
L307.065600 324.709217L307.601280 325.710412L307.869120 324.726578
L308.136960 325.224224L308.672640 323.276369L309.208320 324.268563
L310.011840 321.396429L310.279680 321.892230L311.351040 318.142977
L311.886720 319.136132L312.154560 318.214286L312.422400 318.707915
L313.493760 315.075734L314.297280 316.554037L314.832960 314.774131
L315.100800 315.263727L315.368640 314.382028L315.636480 314.870050
L315.904320 313.994118L316.172160 315.838286L316.440000 316.318541
L316.975680 314.577551L317.243520 315.057331L318.314880 311.633980
L318.582720 312.115179L318.850560 313.916327L319.118400 314.389119
L319.386240 313.543854L319.921920 314.484062L320.189760 313.645055
L320.993280 315.040240L321.796800 312.557143L322.064640 313.020259
L322.332480 314.760302L322.600320 315.215575L322.868160 314.395714
L323.136000 314.849626L323.403840 316.567804L324.207360 314.128571
L324.743040 315.024324L325.814400 311.834515L326.350080 312.728364
L326.617920 311.942236L326.885760 312.386747L327.153600 314.053022
L327.421440 314.490339L328.224960 312.153061L328.492800 312.590736
L328.760640 311.819838L329.296320 312.690566L329.564160 311.924874
L329.832000 312.357948L330.367680 310.838852L330.635520 312.458242
L330.903360 311.701993L331.439040 312.557143L332.242560 310.313793
L332.510400 311.908388L333.313920 309.689912L333.849600 310.536735
L334.117440 309.805365L334.653120 310.645946L335.724480 307.758673
L335.992320 308.178842L336.528000 306.755749L336.795840 307.175348
L337.063680 306.469158L337.599360 307.304082L338.135040 305.903501
L338.938560 307.145963L339.742080 305.073342L340.009920 305.485714
L340.277760 304.801382L340.813440 307.802478L341.884800 305.080346
L342.688320 306.291320L342.956160 305.619699L343.491840 306.419677
L343.759680 305.752002L344.831040 307.334262L345.098880 308.779858
L345.366720 309.167532L345.634560 308.503829L346.438080 309.659016
L347.777280 306.389365L348.045120 306.774031L348.312960 306.128571
L348.848640 306.894309L350.723520 302.455102L350.991360 302.839180
L351.259200 302.215528L351.527040 302.598563L351.794880 301.977840
L352.062720 302.359837L352.330560 303.738655L352.598400 304.115711
L353.401920 302.266426L353.669760 302.643412L353.937600 304.005648
L354.205440 304.377812L354.473280 303.765637L355.812480 305.607402
L356.080320 306.943184L357.151680 308.378571L357.419520 309.696489
L358.490880 311.097749L359.294400 309.285288L359.830080 309.980935
L360.365760 308.785714L360.633600 309.132532L360.901440 308.538693
L361.437120 309.229412L361.704960 310.507077L362.508480 308.737539
L363.044160 309.420000L363.312000 308.835338L364.115520 309.851109
L364.383360 311.104633L364.651200 310.522199L365.186880 311.188479
L365.454720 310.609021L365.990400 311.271429L366.526080 310.120452
L366.793920 310.450760L367.061760 309.878761L367.329600 310.208329
L367.597440 309.638776L367.865280 310.863984L368.133120 310.295280
L368.400960 310.621805L368.936640 309.491209L369.204480 309.817427
L370.008000 308.137500L370.811520 309.113027L371.079360 308.558128
L371.882880 309.524798L372.150720 308.972994L372.954240 309.930956
L373.489920 308.835338L373.757760 309.153269L374.025600 308.608629
L374.293440 308.925869L375.096960 307.304082L375.364800 308.475647
L376.168320 306.866945L378.311040 309.365098L378.846720 308.307319
L379.382400 308.923054L379.650240 308.397479L380.453760 309.314634
L380.721600 308.791837L380.989440 309.095925L381.525120 308.056104
L381.792960 308.359908L382.596480 306.813735L382.864320 307.933516
L383.400000 306.909037L383.667840 307.211278L383.935680 306.701820
L384.471360 307.304082L384.739200 306.796898L385.274880 309.004672
L385.542720 309.300270L385.810560 308.793138L386.881920 309.967606
L387.149760 309.463393L387.685440 310.045794L387.953280 309.543812
L389.024640 310.699117L389.292480 310.200000L389.828160 310.772967
L390.096000 310.276037L390.363840 310.561525L390.631680 310.066441
L390.899520 311.129882L391.970880 309.161138L392.238720 309.445285
L392.506560 308.957143L392.774400 309.240739L393.310080 308.269489
L393.577920 308.552840L393.845760 308.069710L394.381440 308.634461
L395.988480 305.769412L396.256320 306.807673L396.524160 307.088571
L396.792000 306.615469L397.595520 307.454050L397.863360 306.983193
L398.399040 307.538710L398.666880 308.560699L398.934720 308.835338
L400.273920 306.501783L400.809600 307.051458L401.077440 306.589348
L401.345280 306.863265L401.613120 307.870029L401.880960 308.141316
L402.148800 307.680296L402.416640 307.951076L402.684480 308.950512
L402.952320 309.218700L403.220160 310.213469L403.488000 309.752782
L403.755840 310.018681L404.023680 309.559581L404.291520 309.825000
L404.559360 309.367477L404.827200 309.632416L405.362880 308.721792
L406.434240 309.776244L406.702080 309.323923L406.969920 309.585954
L407.237760 310.559341L407.505600 310.107821L408.309120 310.885178
L408.576960 310.435714L409.380480 311.207410L409.648320 310.759984
L409.916160 311.016059L410.184000 311.972727L411.791040 309.311241
L412.862400 310.328106L413.130240 309.889765L413.665920 310.394568
L413.933760 309.957915L414.201600 310.209543L414.737280 309.340261
L416.076480 310.590756L416.344320 310.159088L416.612160 311.086286
L418.219200 308.516327L418.754880 309.012100L419.290560 308.165414
L419.558400 308.412784L420.361920 307.151758L420.629760 307.399160
L420.897600 306.981238L421.165440 307.892028L421.968960 306.642857
L422.772480 307.379357L423.040320 306.965781L423.308160 307.210230
L423.576000 308.110162L423.843840 308.352510L424.111680 307.939809
L424.379520 308.181753L424.647360 307.770330L425.183040 308.252795
L425.450880 309.143350L425.986560 308.323294L426.254400 309.210360
L426.522240 308.801289L426.790080 309.039376L427.057920 308.631559
L427.325760 308.869259L427.593600 308.462687L428.397120 309.172832
L428.664960 308.767925L428.932800 309.003661L429.200640 309.877630
L429.468480 309.473362L429.736320 309.707331L430.004160 309.304286
L430.272000 309.537881L430.539840 309.136053L431.611200 310.065473
L431.879040 309.665481L432.146880 309.896605L432.414720 309.497810
L432.682560 309.728571L432.950400 310.586560L433.218240 310.815412
L433.486080 310.417449L433.753920 311.271429L434.557440 311.951268
L434.825280 312.799197L435.093120 312.401727L435.360960 313.247038
L435.628800 312.849991L435.896640 313.073306L436.164480 312.677434
L436.432320 312.900416L436.700160 312.505714L436.968000 312.728364
L438.039360 311.159897L439.110720 312.048407L439.378560 311.659453
L439.646400 311.880451L440.182080 311.105728L440.449920 311.326596
L440.717760 310.940816L440.985600 311.161356L441.789120 310.010088
L442.056960 310.230685L442.592640 309.468089L443.128320 309.908481
L443.396160 310.726891L443.664000 310.346802L443.931840 311.162777
L444.199680 310.783068L444.467520 311.000435L444.735360 311.812782
L445.003200 311.433645L445.271040 311.649492L445.538880 311.271429
L446.610240 312.130560L447.413760 311.003881L447.681600 311.217981
L448.217280 310.471560L448.485120 311.271429L448.752960 310.899015
L449.020800 311.112006L450.627840 308.896449L451.699200 309.747835
L452.770560 308.290315L453.038400 308.502644L453.306240 308.140490
L453.574080 308.352510L453.841920 307.991339L454.109760 308.775120
L454.645440 309.195836L455.448960 308.116760L455.984640 308.536598
L456.520320 307.821881L456.788160 308.031429L457.591680 306.965781
L458.127360 307.384451L458.395200 307.031126L459.198720 307.656153
L459.466560 307.304082L460.002240 307.718797L460.537920 307.017599
L461.073600 307.431129L461.341440 307.081991L461.609280 307.842857
L461.877120 308.048049L462.144960 307.699379L462.412800 307.904281
L464.019840 305.828988L464.287680 306.583005L464.555520 306.239290
L464.823360 306.991244L465.359040 306.305150L465.894720 306.712236
L466.430400 306.029670L466.698240 306.232856L466.966080 305.892811
L467.233920 306.095710L468.037440 305.080346L468.840960 305.687755
L469.108800 306.427575L469.376640 306.090557L469.644480 306.291320
L469.912320 305.955156L470.448000 306.355701L470.715840 306.020528
L470.983680 306.754565L471.251520 306.953369L471.787200 306.284579
L472.055040 307.015271L472.590720 306.348443L472.858560 306.546429
L473.394240 305.882655L473.662080 306.080507L473.929920 306.806106
L474.465600 307.198669L474.733440 306.867824L475.001280 307.063636
L477.679680 303.793777L477.947520 303.990530L478.751040 303.022956
L480.090240 304.002649L480.358080 303.682071L481.161600 304.265518
L481.697280 303.627061L481.965120 303.821012L482.232960 304.526274
L483.304320 303.255985L483.840000 303.641915L484.107840 303.326176
L484.375680 303.518687L485.447040 302.262491L485.714880 302.455102
L485.982720 302.142730L486.250560 302.839180L486.518400 302.527045
L486.786240 302.718634L487.054080 303.412452L487.321920 303.100676
L487.589760 303.792752L489.464640 301.624797L489.732480 301.815207
L490.268160 301.201463L490.536000 301.887970L491.071680 302.266426
L491.339520 301.960308L491.875200 302.337523L492.143040 302.032226
L492.410880 302.713276L492.678720 302.900608L493.214400 302.291285
L493.482240 302.478482L493.750080 303.155822L494.821440 303.897697
L495.089280 303.594124L495.624960 304.937594L495.892800 304.633898
L496.428480 304.999891L496.696320 305.667724L496.964160 305.364490
L497.499840 305.727702L497.767680 305.425275L498.303360 306.752539
L499.106880 305.846638L500.178240 306.564407L500.446080 306.264037
L500.981760 306.621127L501.249600 306.321549L501.517440 306.499705
L501.785280 307.154254L502.588800 306.258223L502.856640 306.910554
L503.124480 307.087165L503.392320 307.737510L503.660160 307.439402
L503.928000 307.615029L504.195840 307.317589L505.267200 308.017299
L505.535040 308.661975L505.802880 308.365216L506.070720 308.538693
L506.338560 308.242594L507.945600 309.277452L508.213440 308.982575
L508.481280 309.154058L510.088320 307.396737L510.356160 307.568571
L510.624000 308.202530L510.891840 307.911304L511.159680 308.543803
L511.695360 308.883840L513.302400 307.146959L513.570240 307.317163
L513.838080 307.029611L514.105920 307.199615L514.373760 306.912684
L514.909440 307.251989L515.445120 306.680084L515.980800 307.926966
L516.516480 307.355896L516.784320 307.524098L517.855680 306.388450
L518.123520 307.007731L518.391360 307.175348L518.659200 307.792838
L519.998400 306.382093L520.801920 306.882616L521.605440 306.043007
L521.873280 306.209561L522.141120 305.930769L523.480320 306.759679
L524.016000 306.204530L524.283840 306.369643L524.819520 305.816613
L525.087360 306.422449L525.355200 306.586802L525.890880 306.035307
L526.426560 306.363547L526.694400 306.965781L526.962240 306.690657
L527.497920 307.891458L527.765760 308.053280L528.033600 308.651482
L528.301440 308.812376L528.569280 308.537084L528.837120 308.697800
L529.104960 309.293407L529.372800 309.453202L529.640640 309.178303
L530.176320 309.497274L530.712000 308.949271L530.979840 309.108545
L531.247680 308.835338L531.515520 308.994438L531.783360 308.721792
L532.319040 309.039376L532.586880 309.628149L532.854720 309.785907
L533.390400 309.242038L533.926080 309.557143L536.068800 307.401386
L536.872320 307.874312L537.140160 308.455714L537.675840 308.768457
L538.211520 308.234409L538.479360 308.390575L538.747200 308.124307
L539.015040 308.702130L539.282880 308.857521L539.550720 309.433782
L539.818560 309.167532L540.354240 309.476521L540.622080 310.050371
L540.889920 309.784490L542.229120 310.549994L542.764800 310.020463
L543.032640 310.172995L543.300480 309.908971L543.568320 310.061345
L543.836160 310.629096L544.104000 310.365346L544.371840 310.516975
L544.639680 310.253746L544.907520 310.405219L545.175360 310.142509
L545.711040 310.444898L545.978880 310.182795L546.514560 310.484384
L546.782400 310.222885L547.050240 310.373403L547.585920 309.851851
L547.853760 310.002304L548.121600 309.742247L548.657280 310.042604
L549.192960 309.524096L549.728640 310.640428L550.264320 310.122624
L551.335680 310.717330L552.407040 309.688067L552.674880 310.241222
L553.210560 309.728571L553.478400 309.876617L553.746240 310.427870
L554.817600 309.406838L555.085440 309.554437L555.621120 310.651368
L555.888960 310.797638L556.156800 310.543093L556.692480 310.835114
L556.960320 310.581139L557.228160 310.726891L557.763840 310.220304
L558.567360 310.656696L558.835200 311.199164L559.103040 311.343637
L559.370880 311.091048L559.906560 311.379489L560.174400 311.127461
L560.442240 311.667033L560.710080 311.810470L560.977920 311.558694
L561.245760 311.701993L561.513600 311.450692L562.317120 311.879510
L562.584960 311.628847L563.120640 311.913790L564.192000 310.915658
L564.459840 311.058130L564.995520 310.561525L565.531200 310.846139
L565.799040 310.598568L566.602560 311.024100L567.138240 312.082840
L567.941760 311.341825L568.209600 311.869344L568.477440 312.009470
L568.745280 312.535682L569.816640 313.092047L570.352320 312.599871
L570.888000 312.877117L571.691520 312.142115L571.959360 312.280666
L572.495040 311.792664L572.762880 311.931165L573.030720 312.451124
L573.834240 312.863906L574.102080 312.620564L574.369920 312.757826
L574.905600 312.272387L575.173440 312.788993L575.441280 312.546612
L575.976960 312.820021L576.244800 313.334685L576.512640 313.470601
L576.780480 313.228614L578.119680 313.905575L578.387520 313.664338
L578.655360 313.799209L579.458880 313.077867L579.726720 313.212772
L580.798080 312.256231L581.333760 312.526060L581.601600 312.287952
L582.137280 312.557143L583.208640 311.608788L583.476480 311.743388
L583.744320 311.507236L584.012160 312.012000L584.547840 311.540336
L584.815680 312.043977L585.619200 311.338461L586.154880 311.606105
L587.226240 310.670749L588.565440 311.337931L589.904640 310.178065
L590.172480 310.311281L590.440320 310.080374L590.708160 310.577143
L591.511680 310.974514L591.779520 311.469231L592.583040 310.777977
L592.850880 310.909821L593.386560 311.895137L593.654400 312.025909
L594.190080 311.566242L594.457920 311.696969L596.064960 310.326157
L596.332800 310.815412L596.600640 310.587884L596.868480 310.718472
L597.136320 310.491332L597.672000 310.752094L597.939840 310.525408
L598.743360 310.915385L599.011200 311.400809L599.546880 310.948430
L599.814720 311.077764L600.082560 310.852115L600.350400 311.335893
L600.618240 311.464688L600.886080 311.239241L601.153920 311.367924
L601.689600 310.918103L601.957440 311.046741L602.225280 310.822364
L603.028800 311.207410L603.296640 310.983542L603.832320 311.239485
L604.100160 311.016059L604.368000 311.494723L604.903680 311.749258
L605.439360 311.303240L605.707200 311.780063L605.975040 311.906785
L606.242880 312.382540L606.510720 312.508675L606.778560 312.285910
L607.046400 312.411939L607.314240 312.189545L607.582080 312.315467
L607.849920 312.788993L608.117760 312.566797L608.921280 312.942507
L609.456960 312.499417L609.724800 312.624444L610.260480 312.182688
L610.528320 312.653092L612.135360 311.333977L612.403200 311.458947
L612.671040 311.240197L612.938880 311.365061L613.474560 310.928571
L613.742400 311.053394L614.010240 310.835652L614.278080 310.960369
L614.813760 310.525887L615.349440 310.775067L615.617280 311.240427
L616.420800 310.590756L616.688640 310.714887L616.956480 311.178734
L617.224320 310.962651L617.492160 311.086286L617.760000 310.870553
L618.027840 311.333061L618.295680 311.117451L619.099200 311.486568
L619.367040 311.271429L619.634880 311.394202L620.974080 310.323076
L621.241920 310.782280L621.509760 310.568741L621.777600 310.691331
L622.581120 310.052582L623.116800 310.297633L623.652480 311.210646
L624.723840 311.695790L625.259520 311.271429L625.795200 312.178399
L626.598720 311.542988L626.866560 311.663425L627.134400 311.452232
L627.670080 311.692755L628.205760 311.271429L629.009280 311.631395
L629.544960 311.211512L629.812800 311.331307L630.348480 310.912625
L630.616320 311.032380L630.884160 310.823502L631.152000 310.943161
L631.419840 310.734610L631.687680 310.854172L631.955520 310.645946
L632.223360 311.092834L632.491200 310.884723L633.294720 311.241739
L634.366080 310.412641L634.633920 310.857106L634.901760 310.650342
L635.437440 310.887437L636.240960 310.269063L637.044480 310.624076
L638.115840 309.803904L638.383680 310.244813L639.722880 310.832840
L639.990720 310.628571L640.526400 310.862854L641.062080 310.455308
L641.597760 310.689218L641.865600 310.485939L642.669120 310.835867
L642.936960 310.633005L643.740480 310.981781L644.008320 310.779335
L644.811840 311.126966L645.347520 310.723156L645.615360 310.838852
L647.222400 309.633759L647.490240 310.065473L647.758080 309.865353
L648.829440 310.326822L649.097280 310.127159L649.900800 310.471922
L650.168640 310.272662L650.972160 310.616308L651.240000 310.417449
L651.507840 310.531767L651.775680 310.333205L652.043520 310.447435
L652.579200 310.051143L652.847040 310.165336L653.114880 309.967606
L653.382720 310.081710L653.650560 309.884273L653.918400 309.998289
L654.186240 309.801143L654.454080 309.915071L654.721920 309.718217
L654.989760 309.832056L656.328960 308.851628L656.596800 308.965579
L656.864640 308.770258L657.132480 308.884119L657.400320 308.689084
L657.668160 308.802857L658.203840 308.413594L658.471680 308.527327
L658.739520 308.333097L659.007360 308.446741L659.810880 307.865604
L660.078720 307.979256L660.346560 307.786059L660.882240 308.013048
L661.150080 308.432497L661.685760 308.658301L661.953600 308.465392
L662.757120 308.803227L663.828480 308.034472L664.096320 308.147005
L664.364160 308.563369L665.167680 307.988949L665.435520 308.101174
L666.239040 307.528945L666.774720 307.753275L667.042560 307.563078
L667.310400 307.977072L668.381760 308.423077L669.988800 307.286927
L670.256640 307.698401L670.524480 307.809541L670.792320 307.620878
L671.060160 307.731933L671.595840 307.355363L672.131520 307.577264
L672.399360 307.389401L674.006400 308.052258L675.345600 307.117582
L676.149120 307.447943L676.684800 307.075861L676.952640 307.185814
L677.220480 307.591137L677.488320 307.700663L677.756160 307.514907
L678.024000 307.624350L678.291840 308.028480L678.559680 307.842857
L679.095360 308.649463L679.363200 308.757935L680.434560 308.016756
L680.702400 308.418565L680.970240 308.233679L682.041600 308.666029
L682.309440 308.481532L682.845120 308.697051L683.648640 308.145090
L683.916480 308.252795L684.184320 308.069272L684.720000 308.284401
L684.987840 308.101174L685.255680 308.499038L685.791360 308.132967
L686.059200 308.530133L686.327040 308.347288L687.398400 308.774471
L687.666240 308.592006L688.737600 309.017424L689.005440 308.835338
L689.273280 308.941435L689.541120 308.759598L690.076800 309.546495
L691.148160 308.820241L691.416000 308.925869L691.683840 308.744859
L691.951680 308.850410L692.755200 308.308727L693.023040 308.414286
L693.558720 308.054260L694.362240 308.370477L695.701440 307.474554
L695.969280 307.579930L696.504960 308.357620L697.844160 308.880000
L699.451200 307.811533L700.254720 308.124307L700.790400 307.769969
L701.058240 307.733586L701.326080 307.556828L701.593920 307.941613
L701.861760 308.045455L702.129600 307.868817L702.397440 308.252795
L703.468800 307.547729L703.736640 307.651388L704.004480 307.475645
L705.075840 307.889303L705.343680 307.713911L706.147200 308.023087
L706.415040 308.403837L706.682880 308.506406L707.218560 308.156286
L708.289920 308.565766L708.557760 308.391149L709.093440 308.595300
L709.361280 308.420952L709.629120 308.799008L710.432640 308.276765
L710.968320 308.480267L711.236160 308.306641L712.039680 308.611186
L712.575360 309.362611L712.843200 309.463393L713.111040 309.289892
L713.378880 309.390604L713.914560 309.044240L714.182400 309.418508
L714.450240 309.518935L715.253760 309.000574L715.521600 309.101011
L715.789440 308.928633L717.664320 309.628953L718.200000 309.285288
L718.467840 309.656237L718.735680 309.755682L719.003520 309.584057
L719.539200 309.782707L720.878400 308.927693L721.681920 309.225448
L722.217600 308.884936L722.753280 309.083065L723.288960 308.743423
L723.556800 308.842405L724.360320 308.334394L724.628160 308.701353
L725.163840 308.363362L726.503040 308.856416L727.038720 308.519502
L727.306560 308.617876L727.574400 308.449720L728.110080 308.646233
L728.377920 308.478325L729.717120 308.967997L730.252800 308.633071
L730.788480 308.828371L731.056320 309.190496L731.859840 308.689325
L732.395520 308.883959L732.663360 308.717321L733.199040 308.911624
L733.466880 309.272020L733.734720 309.105525L734.002560 309.202326
L734.270400 309.562013L734.806080 309.229412L735.073920 309.325949
L735.341760 309.159941L735.609600 309.518724L736.145280 309.187023
L736.413120 309.283333L736.948800 308.952386L737.216640 309.048668
L737.484480 308.883485L737.752320 308.979704L738.020160 308.814725
L738.288000 308.910881L738.823680 308.581501L739.091520 308.677628
L739.359360 308.513226L739.895040 308.705256L740.430720 308.377095
L740.698560 308.732799L740.966400 308.568872L741.502080 308.760258
L742.037760 308.433043L742.573440 309.141862L743.109120 308.814924
L743.376960 308.910152L743.912640 308.583947L744.448320 308.774251
L744.984000 309.479497L745.251840 309.574052L745.787520 309.248329
L746.055360 309.600000L746.591040 309.788511L746.858880 310.139378
L747.394560 310.327060L747.662400 310.677126L748.198080 310.351768
L748.465920 310.445314L748.733760 310.282915L749.001600 310.632123
L749.269440 310.469793L749.537280 310.563092L749.805120 310.911635
L750.340800 310.587346L750.876480 310.773359L752.215680 309.965816
L752.483520 310.058854L753.019200 309.737032L753.287040 309.830045
L753.822720 309.508931L754.090560 309.855224L754.358400 309.947993
L754.894080 309.627400L755.429760 309.812797L756.233280 309.333300
L757.572480 309.795685L757.840320 309.636335L758.108160 309.728571
L758.376000 310.072021L758.911680 309.753677L759.447360 309.937579
L759.983040 310.622244L760.250880 310.713632L760.786560 310.395753
L761.322240 311.078287L762.125760 311.350840L762.929280 310.874953
L763.732800 311.147005L764.000640 310.988785L764.536320 311.169776
L765.072000 310.853932L765.607680 311.034702L765.875520 310.877076
L766.143360 310.967362L766.946880 310.495502L767.214720 310.585798
L767.750400 310.272052L768.018240 310.362325L769.089600 309.736786
L769.357440 310.073419L769.893120 309.761382L770.160960 309.851553
L770.428800 309.695792L770.696640 310.031633L770.964480 309.875935
L771.232320 309.965877L771.500160 310.301102L771.768000 310.390751
L772.571520 309.924490L772.839360 310.014148L773.107200 309.859058
L773.910720 310.127612L774.446400 309.818066L774.714240 309.907475
L775.249920 309.598584L775.517760 309.687970L776.856960 308.918479
L777.392640 309.097302L777.660480 308.943906L778.731840 309.300652
L779.267520 308.994541L780.071040 309.261394L780.338880 309.591705
L781.410240 308.981250L781.945920 309.158575L782.213760 309.006383
L782.481600 309.094950L782.749440 309.423935L783.820800 308.816387
L784.356480 308.993116L784.892160 308.690319L785.160000 308.778618
L785.427840 308.627463L785.963520 308.803872L786.231360 309.130986
L786.767040 309.306674L787.034880 309.155696L787.302720 309.482032
L787.570560 309.331114L787.838400 309.418700L788.106240 309.267952
L788.374080 309.355486L788.641920 309.204909L788.909760 309.292390
L789.177600 309.141983L789.713280 309.316759L789.981120 309.641498
L790.516800 309.341060L791.052480 309.515243L791.320320 309.365293
L791.588160 309.452292L791.856000 309.302510L792.391680 309.476325
L792.927360 309.177295L793.195200 309.264140L793.463040 309.114862
L793.730880 309.201655L793.998720 309.524191L794.534400 309.697157
L795.070080 309.399029L795.337920 309.485450L795.873600 309.187930
L796.409280 309.360648L796.944960 310.002304L797.212800 310.088169
L797.480640 309.939542L797.748480 310.025357L798.016320 309.876896
L798.284160 309.962660L798.552000 309.814364L798.819840 310.133952
L799.623360 309.689646L799.891200 309.775260L800.962560 309.184864
L801.498240 309.356085L802.033920 309.061809L802.569600 309.232829
L802.837440 309.085949L803.640960 309.921868L804.444480 309.481490
L805.248000 309.736282L805.515840 309.589840L806.051520 310.221390
L806.587200 309.928597L806.855040 310.013095L810.069120 308.267759
L810.336960 308.581853L810.604800 308.437184L810.872640 308.521782
L811.676160 308.088636L813.015360 308.510890L813.283200 308.366901
L813.551040 308.451152L813.818880 308.763336L814.622400 309.015104
L815.425920 308.584004L815.693760 308.667857L815.961600 308.978830
L816.765120 309.229412L817.032960 309.086001L817.568640 309.705913
L817.836480 309.788968L818.104320 309.645563L818.640000 309.811506
L819.711360 309.239373L819.979200 309.322340L820.514880 309.037087
L821.050560 309.202908L821.854080 308.776132L822.389760 308.941816
L822.925440 308.658031L823.193280 308.740816L823.728960 308.457583
L823.996800 308.540347L824.532480 308.257665L825.336000 308.505674
L825.603840 308.364596L825.871680 308.447147L826.675200 308.024732
L826.943040 308.107287L827.746560 307.686058L828.014400 307.768616
L829.353600 307.069146L829.621440 307.151758L829.889280 307.012255
L832.032000 307.670758L832.835520 307.253571L834.174720 307.663188
L834.710400 307.385912L834.978240 307.687889L835.246080 307.549361
L835.513920 307.630979L836.585280 307.078159L836.853120 307.159804
L838.192320 306.471576L838.460160 306.553272L838.728000 306.853789
L838.995840 306.935251L839.531520 306.660743L839.799360 306.960699
L841.406400 307.447309L841.674240 307.746030L842.209920 307.472003
L842.745600 307.633423L843.549120 307.223403L844.084800 307.384691
L844.352640 307.248299L844.620480 307.328863L845.691840 306.784548
L846.763200 307.106500L847.298880 306.835224L847.566720 307.131418
L847.834560 307.211622L848.638080 306.805435L848.905920 307.101015
L849.441600 306.830661L849.709440 306.910755L849.977280 306.775772
L850.245120 306.855822L851.048640 306.451626L851.316480 306.531678
L852.120000 306.128571L852.387840 306.422820L852.655680 306.288610
L852.923520 306.368528L853.459200 306.100492L854.798400 306.499305
L855.334080 306.231945L855.601920 306.311553L855.869760 306.178063
L856.673280 306.416554L857.744640 305.883980L858.012480 305.963434
L858.548160 305.697857L859.083840 305.856655L860.155200 305.327004
L860.690880 305.485714L860.958720 305.353620L861.226560 305.432899
L861.494400 305.300936L863.101440 305.775359L863.369280 305.643637
L863.637120 305.722500L863.904960 306.011688L864.172800 305.880032
L864.440640 305.958700L864.708480 306.247432L865.512000 306.482593
L866.315520 306.088343L866.583360 306.376190L866.851200 306.244926
L867.386880 306.401251L867.922560 306.139132L868.993920 306.451186
L869.261760 306.320375L869.529600 306.606830L869.797440 306.684556
L870.065280 306.553810L871.404480 306.941597L871.672320 306.811066
L872.475840 307.043044L872.743680 306.912684L873.011520 306.989906
L873.279360 307.274454L873.815040 307.013972L874.350720 307.582124
L874.886400 307.321815L875.154240 307.398619L875.689920 307.138776
L875.957760 307.215561L876.225600 307.498749L876.493440 307.575326
L876.761280 307.858138L877.029120 307.934508L877.564800 307.674967
L878.368320 307.903834L878.636160 308.185714L879.171840 307.926599
L879.439680 308.002663L879.707520 307.873284L880.778880 308.177015
L881.046720 308.457764L881.582400 308.608976L882.118080 308.350666
L882.385920 308.426224L882.921600 308.168372L883.189440 308.448223
L883.457280 308.523620L884.528640 308.008999L884.796480 308.084422
L885.600000 307.699600L885.867840 307.978520L887.474880 308.429323
L887.742720 308.707174L888.010560 308.781958L888.278400 308.653917
L888.546240 308.728662L889.081920 309.283021L889.349760 309.154984
L889.617600 309.229412L889.885440 309.101498L890.153280 309.175888
L890.421120 309.048097L891.224640 309.270975L891.760320 309.015825
L892.296000 309.164201L892.563840 309.036819L893.099520 309.185003
L893.635200 308.930626L893.903040 309.004672L894.170880 308.877655
L894.438720 308.951663L894.706560 309.226458L895.510080 308.845897
L896.045760 308.993588L896.313600 309.267718L896.581440 309.341340
L896.849280 309.615117L897.117120 309.488410L897.384960 309.761914
L897.652800 309.835226L898.456320 309.455590L898.724160 309.728571
L900.063360 309.097540L900.331200 309.170825L901.134720 309.987222
L901.402560 310.060045L902.206080 309.682219L902.473920 309.755048
L902.741760 309.629323L903.009600 309.900534L903.277440 309.774851
L903.545280 309.847530L903.813120 309.721965L904.080960 309.794608
L904.884480 309.418561L905.152320 309.491209L905.420160 309.761526
L905.955840 309.511242L906.759360 309.728571L907.295040 309.478798
L907.830720 309.623485L908.634240 309.249671L908.902080 309.321992
L909.705600 308.949104L909.973440 309.021429L910.776960 308.649463
L911.044800 308.721792L911.312640 308.598014L911.848320 308.742544
L912.116160 308.618901L912.384000 308.691102L912.651840 308.567574
L912.919680 308.639740L914.258880 308.023620L915.330240 308.312120
L916.133760 307.943813L916.401600 308.210485L916.937280 307.965306
L917.205120 308.037261L917.472960 308.303490L917.740800 308.181005
L918.544320 308.396211L918.812160 308.273878L919.080000 308.539408
L919.347840 308.417113L919.615680 308.682387L919.883520 308.753796
L920.151360 308.631559L920.419200 308.702932L920.954880 308.458776
L921.222720 308.530133L922.026240 308.164651L922.294080 308.236012
L922.561920 308.114389L922.829760 308.185714L924.436800 307.458017
L924.972480 307.600734L925.240320 307.479809L925.508160 307.551105
L925.776000 307.430290L926.043840 307.501551L926.311680 307.380846
L926.579520 307.452072L926.847360 307.331477L927.383040 307.473805
L927.650880 307.353338L927.918720 307.424440L928.186560 307.304082
L928.722240 307.446163L929.257920 307.205792L929.525760 307.276789
L929.793600 307.156757L930.061440 307.418624L930.597120 307.560247
L931.132800 307.320420L931.400640 307.581737L931.668480 307.652381
L932.204160 307.412844L932.472000 307.673735L934.079040 308.095973
L934.882560 307.737510L935.150400 307.997309L935.953920 308.207517
L937.560960 307.493003L937.828800 307.563078L938.364480 307.325649
L938.632320 307.395707L939.168000 307.158666L939.703680 307.298700
L939.971520 307.180347L940.775040 307.390063L941.042880 307.271851
L942.114240 307.550822L942.382080 307.432768L942.649920 307.502400
L943.185600 308.016432L943.453440 308.085772L943.721280 307.967739
L944.256960 308.106303L944.524800 307.988392L945.328320 308.756639
L945.596160 308.825505L945.864000 308.707546L946.131840 308.963083
L946.399680 309.031797L946.667520 309.287028L946.935360 309.169074
L947.203200 309.237637L947.738880 309.002023L948.274560 309.139070
L948.810240 308.903873L949.078080 308.972357L949.345920 309.226678
L949.613760 309.109176L949.881600 309.363262L950.149440 309.431479
L950.417280 309.314031L950.685120 309.567763L951.756480 309.098628
L952.024320 309.166767L952.560000 308.932747L952.827840 309.000872
L953.095680 309.253889L953.631360 309.020145L953.899200 309.272880
L954.167040 309.156086L954.970560 309.359627L955.238400 309.242971
L955.774080 309.378455L956.041920 309.630329L956.309760 309.513743
L956.577600 309.765386L956.845440 309.832841L957.381120 309.599861
L957.648960 309.667303L958.452480 309.318515L958.988160 309.453359
L959.256000 309.337299L959.791680 309.471984L960.059520 309.356043
L960.863040 309.557759L961.130880 309.441954L962.202240 309.710303
L962.470080 309.594651L963.005760 309.728571L963.273600 309.613037
L964.077120 309.813611L964.344960 309.698211L964.880640 309.831723
L965.148480 309.716440L966.219840 309.982961L966.487680 309.867830
L966.755520 310.115936L967.559040 310.315044L967.826880 310.200000
L968.362560 310.332537L968.630400 310.217609L968.898240 310.283824
L969.433920 310.054249L969.701760 310.120452L969.969600 310.005804
L970.505280 310.138102L971.040960 309.909119L971.308800 309.975232
L971.844480 309.746607L972.112320 309.812707L972.380160 309.698534
L972.648000 309.944768L972.915840 309.830628L973.183680 309.896605
L973.719360 309.668602L974.790720 309.932181L975.058560 310.177551
L975.326400 310.063691L975.862080 310.195017L977.201280 309.627089
L977.469120 309.871790L977.736960 309.758398L978.004800 309.823984
L978.272640 310.068358L978.540480 309.955016L979.076160 310.085865
L979.344000 309.972636L979.879680 310.103335L980.415360 309.877183
L980.683200 310.120768L981.486720 309.781997L981.754560 310.025275
L982.022400 310.090423L982.558080 309.864912L982.825920 309.930048
L983.093760 309.817427L983.361600 310.060183L984.432960 310.319910
L984.700800 310.207389L985.236480 310.337015L985.504320 310.224605
L985.772160 310.289366L986.040000 310.531115L986.307840 310.418755
L986.575680 310.483381L986.843520 310.371116L987.111360 310.435714
L987.379200 310.323543L987.647040 310.564776L988.182720 310.340579
L988.450560 310.405076L988.718400 310.293110L989.254080 310.422002
L989.521920 310.310147L989.789760 310.550717L990.325440 310.679253
L990.593280 310.919446L990.861120 310.983542L991.932480 310.536735
L992.200320 310.600853L992.468160 310.489360L992.736000 310.553450
L993.807360 310.108311L994.343040 310.236488L994.610880 310.475594
L994.878720 310.539513L995.414400 310.317412L995.682240 310.381319
L996.217920 310.159555L996.753600 310.287302L997.824960 309.844814
L998.092800 309.908686L998.360640 309.798269L999.164160 309.989670
L1000.235520 309.548949L1001.574720 309.867397L1001.842560 309.757484
L1002.110400 309.994473L1002.378240 310.057945L1002.646080 309.948079
L1003.181760 310.074927L1004.253120 309.636335L1004.520960 309.699757
L1004.788800 309.590311L1005.592320 309.780366L1006.128000 309.561790
L1006.663680 309.688341L1006.931520 309.579195L1007.199360 309.814721
L1008.002880 309.487598L1008.270720 309.550770L1008.538560 309.441892
L1009.074240 309.568139L1009.877760 309.242038L1010.145600 309.476804
L1010.681280 309.602772L1010.949120 309.494207L1011.216960 309.728571
L1012.824000 309.078456L1013.359680 309.546206L1013.627520 309.608934
L1013.895360 309.500767L1014.431040 309.626128L1014.698880 309.518064
L1014.966720 309.751321L1015.234560 309.643288L1015.502400 309.705837
L1016.038080 310.171601L1016.573760 310.296178L1016.841600 310.188179
L1017.109440 310.250420L1017.377280 310.142509L1017.645120 310.204724
L1018.180800 309.989147L1018.716480 310.113514L1018.984320 310.345406
L1019.252160 310.407429L1019.787840 310.192148L1020.323520 310.316131
L1020.591360 310.547492L1021.662720 310.794573L1022.198400 310.579679
L1023.269760 310.826226L1023.537600 310.718947L1023.805440 310.780496
L1024.073280 310.673303L1024.341120 310.734827L1024.608960 310.627720
L1024.876800 310.689218L1026.483840 310.132253L1027.019520 310.255252
L1027.287360 310.148656L1027.555200 310.210110L1027.823040 310.439446
L1028.090880 310.332895L1028.626560 310.455519L1028.894400 310.349068
L1029.697920 310.532746L1029.965760 310.426410L1030.233600 310.487570
L1031.037120 310.169026L1031.840640 310.352398L1032.108480 310.246400
L1032.376320 310.474446L1032.912000 310.596334L1033.179840 310.490395
L1033.447680 310.551294L1034.251200 310.233938L1034.786880 310.355704
L1035.054720 310.582968L1035.590400 310.371723L1036.126080 310.493200
L1036.661760 310.282289L1037.197440 310.403666L1037.465280 310.298342
L1037.733120 310.358986L1038.268800 310.148574L1038.804480 310.601167
L1039.072320 310.495985L1039.340160 310.556446L1039.608000 310.782389
L1039.875840 310.842718L1040.143680 310.737594L1040.411520 310.797898
L1040.679360 311.023469L1041.215040 310.813377L1041.482880 311.038724
L1041.750720 311.098833L1042.286400 310.888964L1042.554240 310.949063
L1042.822080 310.844245L1044.161280 311.144229L1044.429120 311.039551
L1044.696960 311.099446L1044.964800 310.994850L1045.232640 311.054721
L1045.500480 311.278899L1046.571840 310.861094L1048.178880 311.219305
L1048.982400 310.906916L1049.250240 311.130132L1050.321600 310.714396
L1050.589440 310.773972L1050.857280 310.670219L1051.125120 310.729771
L1052.196480 310.315480L1052.464320 310.375050L1052.732160 310.271657
L1053.000000 310.331204L1053.267840 310.553534L1053.803520 310.672333
L1054.071360 310.569010L1054.339200 310.790980L1054.607040 310.850246
L1054.874880 310.746965L1055.142720 310.968666L1055.678400 311.086935
L1056.214080 310.880552L1056.481920 310.939658L1057.017600 310.733565
L1057.285440 310.954706L1057.821120 311.072683L1058.088960 311.293504
L1058.356800 311.190509L1058.624640 311.411153L1060.231680 310.794332
L1060.499520 310.853184L1060.767360 310.750623L1061.838720 310.985714
L1062.106560 310.883273L1062.374400 310.941967L1062.642240 311.161643
L1062.910080 311.059243L1063.177920 311.117826L1063.713600 310.913248
L1063.981440 311.132586L1064.249280 311.191071L1064.784960 310.986706
L1065.052800 311.045182L1065.320640 310.943109L1065.856320 311.059978
L1066.124160 310.957998L1066.392000 311.016391L1066.659840 310.914488
L1066.927680 311.133067L1067.463360 311.249596L1068.266880 310.944244
L1068.802560 311.060709L1069.606080 310.756014L1069.873920 310.814232
L1071.213120 310.307747L1071.480960 310.525352L1071.748800 310.583515
L1072.552320 310.280315L1072.820160 310.497589L1073.355840 310.295699
L1073.891520 310.411878L1074.159360 310.628772L1075.230720 310.225709
L1075.766400 310.341678L1076.302080 310.774430L1076.569920 310.832190
L1077.105600 310.630970L1077.373440 310.846987L1077.641280 310.904652
L1077.909120 310.804114L1078.444800 310.919364L1078.980480 310.718528
L1079.784000 310.891214L1080.051840 310.790929L1080.319680 310.848433
L1080.587520 310.748224L1080.855360 310.963335L1081.123200 310.863152
L1081.391040 310.920562L1081.926720 310.720408L1082.194560 310.777810
L1082.462400 310.677839L1082.730240 310.735218L1082.998080 310.635322
L1084.069440 310.864537L1084.337280 310.764755L1085.140800 310.936335
L1085.944320 310.637475L1086.212160 310.694637L1087.551360 310.197828
L1088.087040 310.312176L1088.622720 310.113931L1088.890560 310.327257
L1089.158400 310.228190L1089.426240 310.285268L1090.497600 309.889660
L1090.765440 309.946753L1091.301120 309.749338L1091.568960 309.806422
L1092.104640 309.609273L1092.372480 309.821907L1092.908160 309.935856
L1093.443840 309.738929L1093.711680 309.795877L1093.979520 310.008064
L1094.515200 310.121692L1095.586560 309.728571L1095.854400 309.785384
L1096.122240 309.687266L1096.390080 309.898905L1096.657920 309.800812
L1096.925760 309.857534L1097.997120 309.465808L1098.264960 309.522545
L1098.532800 309.424775L1098.800640 309.481490L1099.068480 309.383791
L1099.872000 309.553767L1100.407680 309.358622L1100.675520 309.569336
L1100.943360 309.471818L1101.211200 309.528364L1101.479040 309.430917
L1102.282560 309.600388L1102.818240 309.405745L1103.353920 309.518605
L1103.621760 309.421396L1103.889600 309.477787L1104.157440 309.687639
L1104.425280 309.590468L1104.693120 309.800159L1105.228800 309.912544
L1106.568000 309.427515L1107.639360 309.652124L1108.442880 309.361952
L1108.710720 309.418056L1109.782080 309.032021L1110.049920 309.240624
L1110.585600 309.047886L1111.121280 309.159980L1112.460480 308.679263
L1112.728320 308.887348L1113.799680 309.111060L1114.871040 308.727576
L1115.406720 308.839327L1115.674560 309.046684L1115.942400 309.102431
L1116.210240 309.006705L1116.478080 309.062432L1117.013760 308.871174
L1117.549440 308.982575L1118.085120 308.791591L1119.156480 309.014091
L1119.424320 309.220535L1119.692160 309.276000L1119.960000 309.482244
L1120.227840 309.537599L1121.299200 309.156332L1121.567040 309.362246
L1121.834880 309.267037L1122.102720 309.322340L1122.370560 309.227200
L1123.709760 309.503287L1123.977600 309.408261L1126.120320 309.848405
L1126.388160 309.753529L1126.656000 309.958117L1126.923840 310.012925
L1127.191680 310.217317L1127.459520 310.272016L1127.727360 310.177155
L1127.995200 310.231835L1128.263040 310.137041L1128.798720 310.246327
L1129.066560 310.151613L1129.334400 310.355484L1129.602240 310.410015
L1131.477120 309.748427L1132.012800 310.155214L1132.548480 309.966558
L1133.084160 310.075433L1133.619840 309.887044L1134.155520 309.995838
L1136.298240 309.244661L1136.566080 309.299102L1136.833920 309.205463
L1137.101760 309.259884L1137.637440 309.072790L1137.905280 309.275080
L1138.173120 309.181583L1138.440960 309.235932L1139.244480 308.955800
L1139.780160 309.064472L1140.315840 308.878033L1140.851520 308.986624
L1142.190720 308.521583L1142.458560 308.575888L1142.726400 308.483052
L1143.529920 308.645810L1144.065600 308.460366L1144.333440 308.514578
L1144.601280 308.421948L1144.869120 308.622909L1145.672640 308.785171
L1146.476160 308.507605L1146.744000 308.708137L1147.279680 308.523297
L1148.083200 308.685226L1148.351040 308.592919L1148.618880 308.793023
L1149.422400 308.516327L1150.225920 308.677890L1150.493760 308.585796
L1150.761600 308.639600L1151.297280 308.455593L1151.832960 308.563151
L1152.368640 308.379399L1152.636480 308.433154L1153.172160 308.249633
L1153.707840 308.357094L1153.975680 308.265434L1154.243520 308.319129
L1154.511360 308.227532L1154.779200 308.426428L1155.582720 308.587147
L1156.118400 308.404114L1156.386240 308.457647L1156.654080 308.366219
L1156.921920 308.419733L1157.725440 308.145794L1157.993280 308.344035
L1158.528960 308.450893L1160.939520 307.631790L1162.278720 307.898884
L1162.546560 308.096242L1163.082240 308.202726L1163.350080 308.112016
L1163.885760 308.218402L1164.153600 308.415335L1164.421440 308.324667
L1164.689280 308.521459L1164.957120 308.574476L1166.028480 308.212240
L1167.367680 308.477090L1168.974720 307.935580L1169.242560 307.988523
L1170.046080 307.718484L1170.581760 307.824344L1170.849600 308.020006
L1171.385280 307.840215L1171.653120 307.893051L1171.920960 308.088475
L1172.188800 307.998636L1172.456640 308.051384L1172.724480 307.961605
L1173.528000 308.119703L1174.063680 307.940358L1175.402880 308.203369
L1175.938560 308.024328L1177.545600 308.339098L1177.813440 308.249714
L1178.349120 308.354424L1178.884800 308.175846L1179.152640 308.228178
L1179.688320 308.049819L1179.956160 308.102143L1180.224000 308.013048
L1181.027520 308.169875L1181.563200 307.991894L1181.831040 308.044132
L1182.098880 307.955226L1182.634560 308.059636L1183.438080 307.793274
L1183.705920 307.845466L1184.241600 307.668157L1184.777280 307.772495
L1185.045120 307.965306L1185.848640 307.699684L1186.652160 307.855862
L1186.920000 307.767449L1187.187840 307.959837L1187.723520 308.063697
L1188.259200 307.887001L1188.794880 307.990787L1189.062720 307.902532
L1189.330560 307.954392L1189.598400 307.866195L1189.866240 307.918037
L1190.134080 307.829899L1190.669760 307.933516L1191.205440 307.757425
L1191.473280 307.809211L1191.741120 307.721248L1192.008960 307.912698
L1192.544640 307.736860L1192.812480 307.788581L1193.080320 307.700744
L1193.348160 307.752446L1193.616000 307.943573L1193.883840 307.855766
L1194.419520 307.958973L1195.490880 307.608303L1196.026560 307.711475
L1196.830080 307.449035L1198.169280 307.706621L1198.704960 307.531997
L1199.240640 307.634874L1199.776320 307.460479L1200.579840 307.614643
L1202.186880 307.092770L1202.454720 307.144160L1202.722560 307.057356
L1202.990400 307.108728L1203.258240 307.021981L1203.793920 307.124660
L1204.061760 307.037979L1205.668800 307.345408L1205.936640 307.534267
L1206.204480 307.447663L1206.472320 307.498749L1207.543680 307.152837
L1207.811520 307.203934L1208.079360 307.117582L1208.347200 307.168661
L1208.882880 306.996117L1209.418560 307.098229L1210.222080 307.662564
L1210.489920 307.576298L1211.293440 307.728710L1211.561280 307.642519
L1211.829120 307.693278L1212.632640 307.435012L1212.900480 307.485772
L1213.971840 307.142102L1214.775360 307.294332L1215.043200 307.481483
L1215.846720 307.224218L1217.185920 307.477213L1217.453760 307.391597
L1217.989440 307.492624L1218.257280 307.407072L1218.792960 307.508011
L1219.060800 307.422523L1219.328640 307.472961L1220.400000 307.131504
L1220.667840 307.181952L1220.935680 307.096711L1221.739200 307.247923
L1222.007040 307.162755L1222.274880 307.213115L1222.542720 307.128001
L1222.810560 307.178343L1223.346240 307.008271L1223.881920 307.108911
L1224.149760 307.023961L1224.685440 307.124514L1225.488960 306.869989
L1225.756800 306.920252L1226.292480 307.155643L1226.560320 307.070883
L1226.828160 307.121041L1227.096000 307.036335L1227.363840 307.086475
L1227.631680 307.001823L1227.899520 307.051945L1228.167360 306.967347
L1228.435200 307.017452L1228.703040 306.932908L1229.238720 307.033056
L1229.506560 306.948575L1230.310080 307.098627L1230.577920 307.014218
L1231.381440 307.432595L1231.917120 307.263823L1232.720640 307.413270
L1232.988480 307.328978L1233.524160 307.428496L1233.792000 307.612166
L1234.059840 307.527910L1234.327680 307.577578L1235.131200 307.325103
L1236.202560 307.523622L1236.738240 307.355599L1237.006080 307.405182
L1238.077440 307.069699L1238.613120 307.435495L1239.684480 307.100508
L1239.952320 307.150015L1240.220160 307.066387L1240.755840 307.165340
L1241.023680 307.081773L1241.291520 307.264191L1242.095040 307.013674
L1242.630720 307.112475L1242.898560 307.029074L1243.166400 307.211172
L1243.434240 307.127790L1243.702080 307.177109L1244.237760 307.010491
L1244.505600 307.059802L1245.844800 306.644061L1246.380480 306.742694
L1247.719680 306.328119L1247.987520 306.377441L1248.255360 306.294664
L1248.523200 306.343969L1249.058880 306.178560L1249.594560 306.409030
L1250.130240 306.507428L1250.665920 306.342192L1250.933760 306.391369
L1252.005120 306.061444L1252.540800 306.291320L1253.344320 306.044273
L1253.612160 306.093401L1254.147840 305.928933L1254.415680 305.978052
L1254.683520 305.895890L1254.951360 305.944993L1255.487040 305.780813
L1255.754880 305.829907L1256.022720 305.747889L1256.290560 305.796966
L1257.629760 305.387550L1258.165440 305.485714L1258.701120 305.714528
L1259.772480 305.910218L1260.040320 305.828494L1260.308160 305.877363
L1260.843840 305.714059L1261.379520 305.811754L1261.647360 305.730181
L1261.915200 305.778999L1262.718720 305.534558L1262.986560 305.713592
L1263.790080 305.469450L1264.325760 305.697044L1264.593600 305.745746
L1265.129280 305.583177L1266.200640 305.777803L1266.468480 305.956181
L1267.004160 305.793794L1267.272000 305.842348L1267.807680 305.680143
L1268.075520 305.858274L1269.146880 305.534260L1269.682560 305.631276
L1269.950400 305.550392L1270.218240 305.728194L1270.486080 305.647326
L1271.557440 305.840900L1272.093120 305.679354L1272.360960 305.727702
L1272.628800 305.646999L1272.896640 305.695331L1273.968000 305.372958
L1274.235840 305.421298L1274.503680 305.340815L1274.771520 305.389139
L1275.575040 305.147958L1276.378560 305.292857L1276.646400 305.212569
L1277.182080 305.309062L1277.449920 305.228831L1277.717760 305.405458
L1278.253440 305.245068L1278.521280 305.293246L1278.789120 305.213120
L1279.056960 305.389529L1279.324800 305.309418L1279.592640 305.485714
L1279.860480 305.405620L1280.396160 305.629811L1280.664000 305.549741
L1280.931840 305.725755L1281.199680 305.645701L1281.467520 305.693645
L1283.342400 305.134449L1283.610240 305.310126L1284.145920 305.150668
L1284.413760 305.326208L1284.949440 305.166862L1285.217280 305.214758
L1285.485120 305.390107L1286.288640 305.151339L1286.556480 305.199178
L1287.092160 305.040214L1287.360000 305.088046L1287.627840 305.263076
L1287.895680 305.183637L1288.699200 305.326845L1288.967040 305.247470
L1289.502720 305.342839L1290.306240 305.104999L1290.574080 305.152672
L1290.841920 305.073479L1291.109760 305.121135L1291.913280 304.883816
L1292.181120 304.931472L1292.448960 304.852452L1292.716800 304.900092
L1292.984640 304.821120L1293.520320 304.916345L1294.323840 305.311870
L1295.395200 305.501503L1295.663040 305.422577L1295.930880 305.469934
L1296.734400 305.864165L1297.002240 305.911366L1297.270080 305.832456
L1297.805760 305.926803L1298.073600 305.847948L1298.341440 305.895094
L1298.609280 306.068150L1298.877120 305.989318L1299.144960 306.036394
L1299.948480 305.800155L1300.216320 305.847232L1300.752000 305.689950
L1301.555520 305.831087L1302.894720 305.438676L1303.162560 305.485714
L1303.430400 305.407356L1303.698240 305.454379L1303.966080 305.376066
L1304.233920 305.423074L1304.501760 305.595308L1305.037440 305.438768
L1305.305280 305.485714L1305.840960 305.704633L1306.912320 305.891879
L1307.448000 305.735539L1307.715840 305.782308L1307.983680 305.704204
L1308.251520 305.750958L1308.519360 305.672899L1309.590720 305.859717
L1309.858560 305.781728L1310.394240 306.124167L1310.662080 306.046170
L1310.929920 306.092726L1311.465600 305.936861L1312.269120 306.076439
L1312.536960 305.998587L1313.072640 306.091541L1313.340480 306.013742
L1313.608320 306.060192L1313.876160 305.982439L1314.411840 306.075287
L1314.679680 305.997587L1315.215360 306.214390L1315.751040 306.307012
L1316.286720 306.151726L1316.554560 306.321898L1317.358080 306.089184
L1317.893760 306.181687L1318.429440 306.026764L1318.697280 306.072997
L1318.965120 306.242816L1319.500800 306.088013L1319.768640 306.134186
L1320.304320 305.979548L1320.572160 306.025714L1320.840000 305.948459
L1321.107840 305.994610L1321.643520 306.210155L1321.911360 306.132930
L1322.179200 306.178992L1322.447040 306.101812L1322.714880 306.271048
L1323.250560 306.116756L1323.518400 306.162766L1323.786240 306.085683
L1324.054080 306.131679L1324.589760 305.977640L1324.857600 306.023628
L1325.661120 305.792871L1325.928960 305.838859L1326.196800 305.762022
L1327.268160 305.945783L1327.536000 305.869013L1328.071680 305.960775
L1328.875200 305.730730L1329.143040 305.776601L1329.678720 305.623436
L1329.946560 305.791690L1330.214400 305.715141L1330.750080 305.806757
L1331.285760 306.020528L1331.821440 306.111910L1332.089280 306.035413
L1332.357120 306.081078L1332.892800 305.928208L1333.160640 305.973867
L1333.696320 305.821158L1333.964160 305.866809L1334.232000 305.790517
L1335.035520 305.927361L1335.303360 305.851128L1335.571200 305.896706
L1336.106880 306.109515L1336.910400 305.881012L1337.446080 306.093573
L1339.588800 305.485714L1340.392320 305.622124L1341.195840 305.394839
L1341.463680 305.561426L1341.999360 305.410039L1342.267200 305.455451
L1342.535040 305.379819L1343.338560 305.515948L1343.606400 305.440374
L1343.874240 305.485714L1344.142080 305.410183L1344.677760 305.500813
L1345.213440 305.349887L1345.481280 305.395184L1345.749120 305.319781
L1346.016960 305.365064L1346.820480 305.139092L1347.356160 305.350144
L1347.891840 305.199645L1348.427520 305.410469L1348.695360 305.335258
L1348.963200 305.500756L1349.231040 305.425560L1349.498880 305.470679
L1349.766720 305.636028L1350.838080 305.335542L1351.641600 305.470708
L1351.909440 305.395696L1352.177280 305.440716L1352.445120 305.365747
L1352.980800 305.695559L1353.516480 305.545642L1353.784320 305.590562
L1355.659200 305.067011L1355.927040 305.111960L1356.194880 305.276461
L1356.462720 305.201795L1357.266240 305.336388L1357.801920 305.187202
L1358.605440 305.321648L1358.873280 305.247128L1359.676800 305.381406
L1360.212480 305.232513L1360.480320 305.396370L1360.748160 305.321955
L1361.283840 305.530355L1361.551680 305.455961L1362.355200 305.589779
L1362.623040 305.515440L1363.158720 305.723409L1363.426560 305.767911
L1363.694400 305.931185L1364.230080 305.782556L1364.765760 305.990110
L1365.033600 305.915834L1365.301440 306.078844L1366.104960 305.856162
L1366.372800 305.900519L1366.640640 305.826367L1366.908480 305.870711
L1367.712000 305.648484L1367.979840 305.692827L1368.247680 305.618827
L1368.783360 305.707466L1369.051200 305.633515L1369.854720 306.002656
L1370.658240 306.135131L1371.193920 305.987304L1371.461760 306.031435
L1371.729600 306.193513L1373.336640 305.750770L1373.604480 305.794875
L1374.408000 305.573985L1374.675840 305.618089L1375.747200 305.324072
L1376.015040 305.368184L1377.354240 305.001459L1377.889920 305.089688
L1378.157760 305.016458L1378.425600 305.060549L1378.693440 304.987359
L1378.961280 305.148669L1379.496960 305.002351L1379.764800 305.046394
L1380.032640 304.973292L1380.568320 305.061331L1380.836160 304.988276
L1381.639680 305.120203L1381.907520 305.281075L1382.443200 305.135065
L1383.514560 305.310550L1383.782400 305.237622L1384.585920 305.602383
L1384.853760 305.529455L1385.121600 305.689791L1385.389440 305.616877
L1385.657280 305.660557L1386.460800 305.442034L1386.728640 305.485714
L1386.996480 305.412946L1387.264320 305.456614L1387.532160 305.616637
L1387.800000 305.543889L1388.335680 305.747380L1388.871360 305.834442
L1389.674880 306.197213L1389.942720 306.124466L1390.210560 306.167861
L1390.478400 306.095153L1391.281920 306.225242L1392.085440 306.007377
L1392.353280 306.050720L1392.888960 305.905656L1393.156800 305.948993
L1393.692480 305.804073L1395.031680 306.020528L1395.299520 305.948151
L1395.567360 305.991390L1396.370880 305.774475L1396.906560 305.860933
L1397.174400 305.788707L1397.442240 305.831913L1397.977920 305.687572
L1398.245760 305.730772L1399.852800 305.298572L1400.120640 305.456930
L1400.924160 305.241211L1401.192000 305.399438L1401.995520 305.183953
L1402.263360 305.227120L1403.334720 304.940286L1403.602560 304.983459
L1404.673920 304.811866L1404.941760 304.969691L1405.477440 304.941268
L1405.745280 304.984364L1406.548800 304.884500L1407.084480 304.970619
L1408.423680 304.728231L1408.691520 304.771268L1409.495040 304.671794
L1409.762880 304.714805L1410.030720 304.643613L1410.566400 304.843722
L1411.102080 304.815489L1411.369920 304.858410L1412.441280 304.688042
L1412.709120 304.730943L1413.244800 304.930565L1413.512640 304.859532
L1414.048320 305.058963L1414.584000 305.030716L1414.851840 305.073464
L1415.387520 305.045230L1415.923200 305.130644L1416.458880 305.102409
L1416.726720 305.145075L1417.262400 305.116852L1417.530240 305.159486
L1418.601600 304.989722L1418.869440 305.032337L1419.672960 304.933529
L1419.940800 304.976118L1420.744320 304.877436L1422.083520 305.090066
L1423.154880 304.808062L1423.422720 304.963473L1424.494080 304.794711
L1425.029760 304.879592L1426.368960 304.640898L1426.636800 304.683316
L1427.440320 304.585373L1427.708160 304.627766L1428.511680 304.417504
L1429.047360 304.614664L1429.583040 304.586963L1430.386560 304.938400
L1432.797120 305.317643L1433.600640 305.219778L1434.136320 305.191913
L1434.672000 305.164074L1435.475520 305.178261L1436.011200 305.150458
L1438.421760 305.416007L1439.225280 305.318526L1440.564480 305.638802
L1440.832320 305.791823L1441.100160 305.722201L1441.368000 305.875137
L1441.903680 305.847163L1442.439360 305.819214L1443.778560 305.582879
L1447.260480 306.011688L1447.796160 305.983789L1448.599680 306.329124
L1449.671040 306.383649L1450.742400 306.217241L1451.278080 306.189331
L1452.885120 305.885291L1453.152960 306.036735L1453.956480 305.940011
L1454.760000 305.953474L1455.027840 305.884600L1455.563520 306.076910
L1455.831360 306.008053L1456.099200 306.159111L1457.974080 305.787599
L1458.509760 305.760037L1459.045440 305.732498L1459.581120 305.704983
L1460.384640 305.608974L1460.920320 305.581541L1461.991680 305.417325
L1462.259520 305.567764L1463.063040 305.472048L1464.134400 305.526677
L1465.473600 305.294758L1466.009280 305.267573L1466.544960 305.131386
L1466.812800 305.281338L1467.884160 305.118151L1473.776640 306.014152
L1474.312320 305.878488L1474.580160 306.027356L1475.651520 305.864541
L1477.258560 305.999181L1477.794240 305.971950L1479.401280 306.106225
L1480.204800 306.011465L1483.418880 306.386638L1484.222400 306.292000
L1486.900800 306.585317L1487.436480 306.558045L1488.240000 306.570764
L1489.043520 306.476369L1489.579200 306.449189L1491.721920 306.020079
L1492.793280 306.073023L1493.061120 306.006174L1493.864640 306.339265
L1494.668160 306.352057L1495.203840 306.325049L1496.810880 306.457056
L1497.346560 306.430049L1498.150080 306.442750L1498.685760 306.415777
L1499.221440 306.388827L1500.024960 306.295352L1500.560640 306.480756
L1501.364160 306.387321L1501.899840 306.572494L1502.167680 306.506014
L1502.435520 306.651528L1502.703360 306.585060L1503.239040 306.769958
L1503.774720 306.742955L1504.310400 306.715975L1504.578240 306.861204
L1505.917440 306.635170L1506.185280 306.780235L1507.256640 306.620780
L1507.792320 306.593923L1509.667200 306.236624L1510.202880 306.420670
L1511.274240 306.262007L1513.684800 306.510094L1515.024000 306.286006
L1515.559680 306.469274L1516.898880 306.245551L1518.773760 306.414521
L1520.112960 306.086858L1520.916480 306.412996L1521.452160 306.282066
L1521.720000 306.425478L1522.255680 306.398998L1523.594880 306.489298
L1523.862720 306.423938L1524.398400 306.605912L1525.201920 306.618242
L1526.273280 306.461233L1527.612480 307.070939L1528.416000 307.082954
L1528.951680 306.952498L1529.219520 307.094955L1530.023040 307.003182
L1530.558720 306.976635L1532.165760 306.689943L1534.844160 306.971791
L1536.451200 306.686036L1536.986880 306.866170L1538.058240 306.710359
L1539.397440 306.799266L1540.736640 306.579234L1542.879360 306.782975
L1543.950720 306.627923L1544.486400 306.807064L1546.093440 306.523578
L1547.164800 306.573955L1547.700480 306.445540L1547.968320 306.586093
L1549.307520 306.367690L1549.843200 306.341782L1550.646720 306.251880
L1551.182400 306.430273L1552.253760 306.276467L1553.860800 306.402905
L1554.932160 306.249429L1555.200000 306.389262L1555.467840 306.325464
L1555.467840 306.325464"/>
</g>
<g id="matplotlib.axis1">
<g id="xtick1">
<g id="line2d2">
<defs><path id="m30e32995789d870ad79a2e54c91cf9c6" d="M0.000000 0.000000L0.000000 -4.000000"/></defs>
<g ><use style="fill: none; stroke: #000000; stroke-width: 0.500000; stroke-linejoin: round; stroke-linecap: butt;  opacity: 1.000000" xlink:href="#m30e32995789d870ad79a2e54c91cf9c6" x="216.000000" y="801.900000"/>
</g></g>
<g id="line2d3">
<defs><path id="m9281cae24120827b11d5ea8a7ad3e96b" d="M0.000000 0.000000L0.000000 4.000000"/></defs>
<g ><use style="fill: none; stroke: #000000; stroke-width: 0.500000; stroke-linejoin: round; stroke-linecap: butt;  opacity: 1.000000" xlink:href="#m9281cae24120827b11d5ea8a7ad3e96b" x="216.000000" y="89.100000"/>
</g></g>
<g id="text1">
<defs>
<path id="c_7a2040fe3b94fcd41d0a72c84e93b115" d="M31.781250 -66.406250q-7.609375 0.000000 -11.453125 7.500000q-3.828125 7.484375 -3.828125 22.531250q0.000000 14.984375 3.828125 22.484375q3.843750 7.500000 11.453125 7.500000q7.671875 0.000000 11.500000 -7.500000q3.843750 -7.500000 3.843750 -22.484375q0.000000 -15.046875 -3.843750 -22.531250q-3.828125 -7.500000 -11.500000 -7.500000M31.781250 -74.218750q12.265625 0.000000 18.734375 9.703125q6.468750 9.687500 6.468750 28.140625q0.000000 18.406250 -6.468750 28.109375q-6.468750 9.687500 -18.734375 9.687500q-12.250000 0.000000 -18.718750 -9.687500q-6.468750 -9.703125 -6.468750 -28.109375q0.000000 -18.453125 6.468750 -28.140625q6.468750 -9.703125 18.718750 -9.703125"/>
</defs>
<g style="fill: #000000; opacity: 1.000000" transform="translate(212.976562,814.806250)scale(0.120000)">
<use xlink:href="#c_7a2040fe3b94fcd41d0a72c84e93b115"/>
</g>
</g>
</g>
<g id="xtick2">
<g id="line2d4">
<g ><use style="fill: none; stroke: #000000; stroke-width: 0.500000; stroke-linejoin: round; stroke-linecap: butt;  opacity: 1.000000" xlink:href="#m30e32995789d870ad79a2e54c91cf9c6" x="483.840000" y="801.900000"/>
</g></g>
<g id="line2d5">
<g ><use style="fill: none; stroke: #000000; stroke-width: 0.500000; stroke-linejoin: round; stroke-linecap: butt;  opacity: 1.000000" xlink:href="#m9281cae24120827b11d5ea8a7ad3e96b" x="483.840000" y="89.100000"/>
</g></g>
<g id="text2">
<defs>
<path id="c_42baa63129a918535c52adb20d687ea7" d="M12.406250 -8.296875l16.109375 0.000000l0.000000 -55.625000l-17.531250 3.515625l0.000000 -8.984375l17.437500 -3.515625l9.859375 0.000000l0.000000 64.609375l16.109375 0.000000l0.000000 8.296875l-41.984375 0.000000z"/>
</defs>
<g style="fill: #000000; opacity: 1.000000" transform="translate(469.613438,814.806250)scale(0.120000)">
<use xlink:href="#c_42baa63129a918535c52adb20d687ea7"/>
<use xlink:href="#c_7a2040fe3b94fcd41d0a72c84e93b115" x="63.623047"/>
<use xlink:href="#c_7a2040fe3b94fcd41d0a72c84e93b115" x="127.246094"/>
<use xlink:href="#c_7a2040fe3b94fcd41d0a72c84e93b115" x="190.869141"/>
</g>
</g>
</g>
<g id="xtick3">
<g id="line2d6">
<g ><use style="fill: none; stroke: #000000; stroke-width: 0.500000; stroke-linejoin: round; stroke-linecap: butt;  opacity: 1.000000" xlink:href="#m30e32995789d870ad79a2e54c91cf9c6" x="751.680000" y="801.900000"/>
</g></g>
<g id="line2d7">
<g ><use style="fill: none; stroke: #000000; stroke-width: 0.500000; stroke-linejoin: round; stroke-linecap: butt;  opacity: 1.000000" xlink:href="#m9281cae24120827b11d5ea8a7ad3e96b" x="751.680000" y="89.100000"/>
</g></g>
<g id="text3">
<defs>
<path id="c_ed3f3ed3ebfbd18bcb9c012009a68ad1" d="M19.187500 -8.296875l34.421875 0.000000l0.000000 8.296875l-46.281250 0.000000l0.000000 -8.296875q5.609375 -5.812500 15.296875 -15.593750q9.703125 -9.796875 12.187500 -12.640625q4.734375 -5.312500 6.609375 -9.000000q1.890625 -3.687500 1.890625 -7.250000q0.000000 -5.812500 -4.078125 -9.468750q-4.078125 -3.671875 -10.625000 -3.671875q-4.640625 0.000000 -9.796875 1.609375q-5.140625 1.609375 -11.000000 4.890625l0.000000 -9.968750q5.953125 -2.390625 11.125000 -3.609375q5.187500 -1.218750 9.484375 -1.218750q11.328125 0.000000 18.062500 5.671875q6.734375 5.656250 6.734375 15.125000q0.000000 4.500000 -1.687500 8.531250q-1.671875 4.015625 -6.125000 9.484375q-1.218750 1.421875 -7.765625 8.187500q-6.531250 6.765625 -18.453125 18.921875"/>
</defs>
<g style="fill: #000000; opacity: 1.000000" transform="translate(737.234688,814.806250)scale(0.120000)">
<use xlink:href="#c_ed3f3ed3ebfbd18bcb9c012009a68ad1"/>
<use xlink:href="#c_7a2040fe3b94fcd41d0a72c84e93b115" x="63.623047"/>
<use xlink:href="#c_7a2040fe3b94fcd41d0a72c84e93b115" x="127.246094"/>
<use xlink:href="#c_7a2040fe3b94fcd41d0a72c84e93b115" x="190.869141"/>
</g>
</g>
</g>
<g id="xtick4">
<g id="line2d8">
<g ><use style="fill: none; stroke: #000000; stroke-width: 0.500000; stroke-linejoin: round; stroke-linecap: butt;  opacity: 1.000000" xlink:href="#m30e32995789d870ad79a2e54c91cf9c6" x="1019.520000" y="801.900000"/>
</g></g>
<g id="line2d9">
<g ><use style="fill: none; stroke: #000000; stroke-width: 0.500000; stroke-linejoin: round; stroke-linecap: butt;  opacity: 1.000000" xlink:href="#m9281cae24120827b11d5ea8a7ad3e96b" x="1019.520000" y="89.100000"/>
</g></g>
<g id="text4">
<defs>
<path id="c_3dcfa38a02242cb63ec6726c6e70be7a" d="M40.578125 -39.312500q7.078125 1.515625 11.046875 6.312500q3.984375 4.781250 3.984375 11.812500q0.000000 10.781250 -7.421875 16.703125q-7.421875 5.906250 -21.093750 5.906250q-4.578125 0.000000 -9.437500 -0.906250q-4.859375 -0.906250 -10.031250 -2.718750l0.000000 -9.515625q4.093750 2.390625 8.968750 3.609375q4.890625 1.218750 10.218750 1.218750q9.265625 0.000000 14.125000 -3.656250q4.859375 -3.656250 4.859375 -10.640625q0.000000 -6.453125 -4.515625 -10.078125q-4.515625 -3.640625 -12.562500 -3.640625l-8.500000 0.000000l0.000000 -8.109375l8.890625 0.000000q7.265625 0.000000 11.125000 -2.906250q3.859375 -2.906250 3.859375 -8.375000q0.000000 -5.609375 -3.984375 -8.609375q-3.968750 -3.015625 -11.390625 -3.015625q-4.062500 0.000000 -8.703125 0.890625q-4.640625 0.875000 -10.203125 2.718750l0.000000 -8.781250q5.625000 -1.562500 10.531250 -2.343750q4.906250 -0.781250 9.250000 -0.781250q11.234375 0.000000 17.765625 5.109375q6.546875 5.093750 6.546875 13.781250q0.000000 6.062500 -3.468750 10.234375q-3.468750 4.171875 -9.859375 5.781250"/>
</defs>
<g style="fill: #000000; opacity: 1.000000" transform="translate(1005.098125,814.806250)scale(0.120000)">
<use xlink:href="#c_3dcfa38a02242cb63ec6726c6e70be7a"/>
<use xlink:href="#c_7a2040fe3b94fcd41d0a72c84e93b115" x="63.623047"/>
<use xlink:href="#c_7a2040fe3b94fcd41d0a72c84e93b115" x="127.246094"/>
<use xlink:href="#c_7a2040fe3b94fcd41d0a72c84e93b115" x="190.869141"/>
</g>
</g>
</g>
<g id="xtick5">
<g id="line2d10">
<g ><use style="fill: none; stroke: #000000; stroke-width: 0.500000; stroke-linejoin: round; stroke-linecap: butt;  opacity: 1.000000" xlink:href="#m30e32995789d870ad79a2e54c91cf9c6" x="1287.360000" y="801.900000"/>
</g></g>
<g id="line2d11">
<g ><use style="fill: none; stroke: #000000; stroke-width: 0.500000; stroke-linejoin: round; stroke-linecap: butt;  opacity: 1.000000" xlink:href="#m9281cae24120827b11d5ea8a7ad3e96b" x="1287.360000" y="89.100000"/>
</g></g>
<g id="text5">
<defs>
<path id="c_a0416418d96557a09b8c1332d34883ba" d="M37.796875 -64.312500l-24.906250 38.921875l24.906250 0.000000zM35.203125 -72.906250l12.406250 0.000000l0.000000 47.515625l10.406250 0.000000l0.000000 8.203125l-10.406250 0.000000l0.000000 17.187500l-9.812500 0.000000l0.000000 -17.187500l-32.906250 0.000000l0.000000 -9.515625z"/>
</defs>
<g style="fill: #000000; opacity: 1.000000" transform="translate(1272.774063,814.806250)scale(0.120000)">
<use xlink:href="#c_a0416418d96557a09b8c1332d34883ba"/>
<use xlink:href="#c_7a2040fe3b94fcd41d0a72c84e93b115" x="63.623047"/>
<use xlink:href="#c_7a2040fe3b94fcd41d0a72c84e93b115" x="127.246094"/>
<use xlink:href="#c_7a2040fe3b94fcd41d0a72c84e93b115" x="190.869141"/>
</g>
</g>
</g>
<g id="xtick6">
<g id="line2d12">
<g ><use style="fill: none; stroke: #000000; stroke-width: 0.500000; stroke-linejoin: round; stroke-linecap: butt;  opacity: 1.000000" xlink:href="#m30e32995789d870ad79a2e54c91cf9c6" x="1555.200000" y="801.900000"/>
</g></g>
<g id="line2d13">
<g ><use style="fill: none; stroke: #000000; stroke-width: 0.500000; stroke-linejoin: round; stroke-linecap: butt;  opacity: 1.000000" xlink:href="#m9281cae24120827b11d5ea8a7ad3e96b" x="1555.200000" y="89.100000"/>
</g></g>
<g id="text6">
<defs>
<path id="c_1260a2df50f305f3db244e29828f968e" d="M10.796875 -72.906250l38.718750 0.000000l0.000000 8.312500l-29.687500 0.000000l0.000000 17.859375q2.140625 -0.734375 4.281250 -1.093750q2.156250 -0.359375 4.312500 -0.359375q12.203125 0.000000 19.328125 6.687500q7.140625 6.687500 7.140625 18.109375q0.000000 11.765625 -7.328125 18.296875q-7.328125 6.515625 -20.656250 6.515625q-4.593750 0.000000 -9.359375 -0.781250q-4.750000 -0.781250 -9.828125 -2.343750l0.000000 -9.921875q4.390625 2.390625 9.078125 3.562500q4.687500 1.171875 9.906250 1.171875q8.453125 0.000000 13.375000 -4.437500q4.937500 -4.437500 4.937500 -12.062500q0.000000 -7.609375 -4.937500 -12.046875q-4.921875 -4.453125 -13.375000 -4.453125q-3.953125 0.000000 -7.890625 0.875000q-3.921875 0.875000 -8.015625 2.734375z"/>
</defs>
<g style="fill: #000000; opacity: 1.000000" transform="translate(1540.778125,814.806250)scale(0.120000)">
<use xlink:href="#c_1260a2df50f305f3db244e29828f968e"/>
<use xlink:href="#c_7a2040fe3b94fcd41d0a72c84e93b115" x="63.623047"/>
<use xlink:href="#c_7a2040fe3b94fcd41d0a72c84e93b115" x="127.246094"/>
<use xlink:href="#c_7a2040fe3b94fcd41d0a72c84e93b115" x="190.869141"/>
</g>
</g>
</g>
<g id="text7">
<defs>
<path id="c_07e3f33241aff50afcba519606f2a979" d="M9.812500 -72.906250l9.859375 0.000000l0.000000 64.609375l35.500000 0.000000l0.000000 8.296875l-45.359375 0.000000z"/>
<path id="c_0bce5afba2dc6b9024b26277c38ad8e8" d="M56.203125 -29.593750l0.000000 4.390625l-41.312500 0.000000q0.593750 9.281250 5.593750 14.140625q5.000000 4.859375 13.937500 4.859375q5.171875 0.000000 10.031250 -1.265625q4.859375 -1.265625 9.656250 -3.812500l0.000000 8.500000q-4.843750 2.046875 -9.921875 3.125000q-5.078125 1.078125 -10.296875 1.078125q-13.093750 0.000000 -20.734375 -7.609375q-7.640625 -7.625000 -7.640625 -20.625000q0.000000 -13.421875 7.250000 -21.296875q7.250000 -7.890625 19.562500 -7.890625q11.031250 0.000000 17.453125 7.109375q6.421875 7.093750 6.421875 19.296875M47.218750 -32.234375q-0.093750 -7.359375 -4.125000 -11.750000q-4.031250 -4.406250 -10.671875 -4.406250q-7.515625 0.000000 -12.031250 4.250000q-4.515625 4.250000 -5.203125 11.968750z"/>
<path id="c_01d93a582460e35a7945ca50d148ffeb" d="M34.281250 -27.484375q-10.890625 0.000000 -15.093750 2.484375q-4.203125 2.484375 -4.203125 8.500000q0.000000 4.781250 3.156250 7.593750q3.156250 2.796875 8.562500 2.796875q7.484375 0.000000 12.000000 -5.296875q4.515625 -5.296875 4.515625 -14.078125l0.000000 -2.000000zM52.203125 -31.203125l0.000000 31.203125l-8.984375 0.000000l0.000000 -8.296875q-3.078125 4.968750 -7.671875 7.343750q-4.593750 2.375000 -11.234375 2.375000q-8.390625 0.000000 -13.359375 -4.718750q-4.953125 -4.718750 -4.953125 -12.625000q0.000000 -9.218750 6.171875 -13.906250q6.187500 -4.687500 18.437500 -4.687500l12.609375 0.000000l0.000000 -0.890625q0.000000 -6.203125 -4.078125 -9.593750q-4.078125 -3.390625 -11.453125 -3.390625q-4.687500 0.000000 -9.140625 1.125000q-4.437500 1.125000 -8.531250 3.375000l0.000000 -8.312500q4.921875 -1.906250 9.562500 -2.843750q4.640625 -0.953125 9.031250 -0.953125q11.875000 0.000000 17.734375 6.156250q5.859375 6.140625 5.859375 18.640625"/>
<path id="c_6ec8d5749226675394676a5d2a3b468b" d="M41.109375 -46.296875q-1.515625 -0.875000 -3.296875 -1.281250q-1.781250 -0.421875 -3.921875 -0.421875q-7.625000 0.000000 -11.703125 4.953125q-4.078125 4.953125 -4.078125 14.234375l0.000000 28.812500l-9.031250 0.000000l0.000000 -54.687500l9.031250 0.000000l0.000000 8.500000q2.843750 -4.984375 7.375000 -7.390625q4.546875 -2.421875 11.046875 -2.421875q0.921875 0.000000 2.046875 0.125000q1.125000 0.109375 2.484375 0.359375z"/>
<path id="c_fe791a90f5471e2ab20a5ed41a7fa451" d="M54.890625 -33.015625l0.000000 33.015625l-8.984375 0.000000l0.000000 -32.718750q0.000000 -7.765625 -3.031250 -11.609375q-3.031250 -3.859375 -9.078125 -3.859375q-7.281250 0.000000 -11.484375 4.640625q-4.203125 4.625000 -4.203125 12.640625l0.000000 30.906250l-9.031250 0.000000l0.000000 -54.687500l9.031250 0.000000l0.000000 8.500000q3.234375 -4.937500 7.593750 -7.375000q4.375000 -2.437500 10.093750 -2.437500q9.421875 0.000000 14.250000 5.828125q4.843750 5.828125 4.843750 17.156250"/>
<path id="c_6a63bda47b2f3da1cec6aadd80692cfe" d="M9.421875 -54.687500l8.984375 0.000000l0.000000 54.687500l-8.984375 0.000000zM9.421875 -75.984375l8.984375 0.000000l0.000000 11.390625l-8.984375 0.000000z"/>
<path id="c_e3864de5dabf2f8dd9eee74726882ec1" d="M45.406250 -27.984375q0.000000 -9.765625 -4.031250 -15.125000q-4.015625 -5.375000 -11.296875 -5.375000q-7.218750 0.000000 -11.250000 5.375000q-4.031250 5.359375 -4.031250 15.125000q0.000000 9.718750 4.031250 15.093750q4.031250 5.375000 11.250000 5.375000q7.281250 0.000000 11.296875 -5.375000q4.031250 -5.375000 4.031250 -15.093750M54.390625 -6.781250q0.000000 13.953125 -6.203125 20.765625q-6.187500 6.812500 -18.984375 6.812500q-4.734375 0.000000 -8.937500 -0.703125q-4.203125 -0.703125 -8.156250 -2.171875l0.000000 -8.734375q3.953125 2.140625 7.812500 3.156250q3.859375 1.031250 7.859375 1.031250q8.843750 0.000000 13.234375 -4.609375q4.390625 -4.609375 4.390625 -13.937500l0.000000 -4.453125q-2.781250 4.843750 -7.125000 7.234375q-4.343750 2.390625 -10.406250 2.390625q-10.046875 0.000000 -16.203125 -7.656250q-6.156250 -7.671875 -6.156250 -20.328125q0.000000 -12.687500 6.156250 -20.343750q6.156250 -7.671875 16.203125 -7.671875q6.062500 0.000000 10.406250 2.390625q4.343750 2.390625 7.125000 7.218750l0.000000 -8.296875l8.984375 0.000000z"/>
<path id="c_d41d8cd98f00b204e9800998ecf8427e" d=""/>
<path id="c_0f8c41144cfbf448378cb6fd1cc8e549" d="M18.312500 -70.218750l0.000000 15.531250l18.500000 0.000000l0.000000 6.984375l-18.500000 0.000000l0.000000 29.687500q0.000000 6.687500 1.828125 8.593750q1.828125 1.906250 7.453125 1.906250l9.218750 0.000000l0.000000 7.515625l-9.218750 0.000000q-10.406250 0.000000 -14.359375 -3.875000q-3.953125 -3.890625 -3.953125 -14.140625l0.000000 -29.687500l-6.593750 0.000000l0.000000 -6.984375l6.593750 0.000000l0.000000 -15.531250z"/>
<path id="c_f05dd90d41f04bb96ef1ca503cc2044b" d="M30.609375 -48.390625q-7.218750 0.000000 -11.421875 5.640625q-4.203125 5.640625 -4.203125 15.453125q0.000000 9.812500 4.171875 15.453125q4.187500 5.640625 11.453125 5.640625q7.187500 0.000000 11.375000 -5.656250q4.203125 -5.671875 4.203125 -15.437500q0.000000 -9.718750 -4.203125 -15.406250q-4.187500 -5.687500 -11.375000 -5.687500M30.609375 -56.000000q11.718750 0.000000 18.406250 7.625000q6.703125 7.609375 6.703125 21.078125q0.000000 13.421875 -6.703125 21.078125q-6.687500 7.640625 -18.406250 7.640625q-11.765625 0.000000 -18.437500 -7.640625q-6.656250 -7.656250 -6.656250 -21.078125q0.000000 -13.468750 6.656250 -21.078125q6.671875 -7.625000 18.437500 -7.625000"/>
</defs>
<g style="fill: #000000; opacity: 1.000000" transform="translate(832.826563,829.103125)scale(0.120000)">
<use xlink:href="#c_07e3f33241aff50afcba519606f2a979"/>
<use xlink:href="#c_0bce5afba2dc6b9024b26277c38ad8e8" x="53.962891"/>
<use xlink:href="#c_01d93a582460e35a7945ca50d148ffeb" x="115.486328"/>
<use xlink:href="#c_6ec8d5749226675394676a5d2a3b468b" x="176.765625"/>
<use xlink:href="#c_fe791a90f5471e2ab20a5ed41a7fa451" x="216.128906"/>
<use xlink:href="#c_6a63bda47b2f3da1cec6aadd80692cfe" x="279.507812"/>
<use xlink:href="#c_fe791a90f5471e2ab20a5ed41a7fa451" x="307.291016"/>
<use xlink:href="#c_e3864de5dabf2f8dd9eee74726882ec1" x="370.669922"/>
<use xlink:href="#c_d41d8cd98f00b204e9800998ecf8427e" x="434.146484"/>
<use xlink:href="#c_6a63bda47b2f3da1cec6aadd80692cfe" x="465.933594"/>
<use xlink:href="#c_0f8c41144cfbf448378cb6fd1cc8e549" x="493.716797"/>
<use xlink:href="#c_0bce5afba2dc6b9024b26277c38ad8e8" x="532.925781"/>
<use xlink:href="#c_6ec8d5749226675394676a5d2a3b468b" x="594.449219"/>
<use xlink:href="#c_01d93a582460e35a7945ca50d148ffeb" x="635.562500"/>
<use xlink:href="#c_0f8c41144cfbf448378cb6fd1cc8e549" x="696.841797"/>
<use xlink:href="#c_6a63bda47b2f3da1cec6aadd80692cfe" x="736.050781"/>
<use xlink:href="#c_f05dd90d41f04bb96ef1ca503cc2044b" x="763.833984"/>
<use xlink:href="#c_fe791a90f5471e2ab20a5ed41a7fa451" x="825.015625"/>
</g>
</g>
</g>
<g id="matplotlib.axis2">
<g id="ytick1">
<g id="line2d14">
<defs><path id="m3400efa6b1638b3fea9e19e898273957" d="M0.000000 0.000000L4.000000 0.000000"/></defs>
<g ><use style="fill: none; stroke: #000000; stroke-width: 0.500000; stroke-linejoin: round; stroke-linecap: butt;  opacity: 1.000000" xlink:href="#m3400efa6b1638b3fea9e19e898273957" x="216.000000" y="801.900000"/>
</g></g>
<g id="line2d15">
<defs><path id="m20b58b2501143cb5e0a5e8f1ef6f1643" d="M0.000000 0.000000L-4.000000 0.000000"/></defs>
<g ><use style="fill: none; stroke: #000000; stroke-width: 0.500000; stroke-linejoin: round; stroke-linecap: butt;  opacity: 1.000000" xlink:href="#m20b58b2501143cb5e0a5e8f1ef6f1643" x="1555.200000" y="801.900000"/>
</g></g>
<g id="text8">
<defs>
<path id="c_ed3e21196fb739f392806f09ca0594ef" d="M10.687500 -12.406250l10.312500 0.000000l0.000000 12.406250l-10.312500 0.000000z"/>
</defs>
<g style="fill: #000000; opacity: 1.000000" transform="translate(194.906250,806.267188)scale(0.120000)">
<use xlink:href="#c_7a2040fe3b94fcd41d0a72c84e93b115"/>
<use xlink:href="#c_ed3e21196fb739f392806f09ca0594ef" x="63.623047"/>
<use xlink:href="#c_ed3f3ed3ebfbd18bcb9c012009a68ad1" x="95.410156"/>
</g>
</g>
</g>
<g id="ytick2">
<g id="line2d16">
<g ><use style="fill: none; stroke: #000000; stroke-width: 0.500000; stroke-linejoin: round; stroke-linecap: butt;  opacity: 1.000000" xlink:href="#m3400efa6b1638b3fea9e19e898273957" x="216.000000" y="700.071429"/>
</g></g>
<g id="line2d17">
<g ><use style="fill: none; stroke: #000000; stroke-width: 0.500000; stroke-linejoin: round; stroke-linecap: butt;  opacity: 1.000000" xlink:href="#m20b58b2501143cb5e0a5e8f1ef6f1643" x="1555.200000" y="700.071429"/>
</g></g>
<g id="text9">
<g style="fill: #000000; opacity: 1.000000" transform="translate(194.671875,704.438616)scale(0.120000)">
<use xlink:href="#c_7a2040fe3b94fcd41d0a72c84e93b115"/>
<use xlink:href="#c_ed3e21196fb739f392806f09ca0594ef" x="63.623047"/>
<use xlink:href="#c_3dcfa38a02242cb63ec6726c6e70be7a" x="95.410156"/>
</g>
</g>
</g>
<g id="ytick3">
<g id="line2d18">
<g ><use style="fill: none; stroke: #000000; stroke-width: 0.500000; stroke-linejoin: round; stroke-linecap: butt;  opacity: 1.000000" xlink:href="#m3400efa6b1638b3fea9e19e898273957" x="216.000000" y="598.242857"/>
</g></g>
<g id="line2d19">
<g ><use style="fill: none; stroke: #000000; stroke-width: 0.500000; stroke-linejoin: round; stroke-linecap: butt;  opacity: 1.000000" xlink:href="#m20b58b2501143cb5e0a5e8f1ef6f1643" x="1555.200000" y="598.242857"/>
</g></g>
<g id="text10">
<g style="fill: #000000; opacity: 1.000000" transform="translate(194.375000,602.610045)scale(0.120000)">
<use xlink:href="#c_7a2040fe3b94fcd41d0a72c84e93b115"/>
<use xlink:href="#c_ed3e21196fb739f392806f09ca0594ef" x="63.623047"/>
<use xlink:href="#c_a0416418d96557a09b8c1332d34883ba" x="95.410156"/>
</g>
</g>
</g>
<g id="ytick4">
<g id="line2d20">
<g ><use style="fill: none; stroke: #000000; stroke-width: 0.500000; stroke-linejoin: round; stroke-linecap: butt;  opacity: 1.000000" xlink:href="#m3400efa6b1638b3fea9e19e898273957" x="216.000000" y="496.414286"/>
</g></g>
<g id="line2d21">
<g ><use style="fill: none; stroke: #000000; stroke-width: 0.500000; stroke-linejoin: round; stroke-linecap: butt;  opacity: 1.000000" xlink:href="#m20b58b2501143cb5e0a5e8f1ef6f1643" x="1555.200000" y="496.414286"/>
</g></g>
<g id="text11">
<g style="fill: #000000; opacity: 1.000000" transform="translate(194.750000,500.781473)scale(0.120000)">
<use xlink:href="#c_7a2040fe3b94fcd41d0a72c84e93b115"/>
<use xlink:href="#c_ed3e21196fb739f392806f09ca0594ef" x="63.623047"/>
<use xlink:href="#c_1260a2df50f305f3db244e29828f968e" x="95.410156"/>
</g>
</g>
</g>
<g id="ytick5">
<g id="line2d22">
<g ><use style="fill: none; stroke: #000000; stroke-width: 0.500000; stroke-linejoin: round; stroke-linecap: butt;  opacity: 1.000000" xlink:href="#m3400efa6b1638b3fea9e19e898273957" x="216.000000" y="394.585714"/>
</g></g>
<g id="line2d23">
<g ><use style="fill: none; stroke: #000000; stroke-width: 0.500000; stroke-linejoin: round; stroke-linecap: butt;  opacity: 1.000000" xlink:href="#m20b58b2501143cb5e0a5e8f1ef6f1643" x="1555.200000" y="394.585714"/>
</g></g>
<g id="text12">
<defs>
<path id="c_cc8d6d580d1b10c8632f7a42cd53db8a" d="M33.015625 -40.375000q-6.640625 0.000000 -10.531250 4.546875q-3.875000 4.531250 -3.875000 12.437500q0.000000 7.859375 3.875000 12.437500q3.890625 4.562500 10.531250 4.562500q6.640625 0.000000 10.515625 -4.562500q3.875000 -4.578125 3.875000 -12.437500q0.000000 -7.906250 -3.875000 -12.437500q-3.875000 -4.546875 -10.515625 -4.546875M52.593750 -71.296875l0.000000 8.984375q-3.718750 -1.750000 -7.500000 -2.671875q-3.781250 -0.937500 -7.500000 -0.937500q-9.765625 0.000000 -14.921875 6.593750q-5.140625 6.593750 -5.875000 19.921875q2.875000 -4.250000 7.218750 -6.515625q4.359375 -2.265625 9.578125 -2.265625q10.984375 0.000000 17.359375 6.671875q6.375000 6.656250 6.375000 18.125000q0.000000 11.234375 -6.640625 18.031250q-6.640625 6.781250 -17.671875 6.781250q-12.656250 0.000000 -19.343750 -9.687500q-6.687500 -9.703125 -6.687500 -28.109375q0.000000 -17.281250 8.203125 -27.562500q8.203125 -10.281250 22.015625 -10.281250q3.718750 0.000000 7.500000 0.734375q3.781250 0.734375 7.890625 2.187500"/>
</defs>
<g style="fill: #000000; opacity: 1.000000" transform="translate(194.468750,398.952902)scale(0.120000)">
<use xlink:href="#c_7a2040fe3b94fcd41d0a72c84e93b115"/>
<use xlink:href="#c_ed3e21196fb739f392806f09ca0594ef" x="63.623047"/>
<use xlink:href="#c_cc8d6d580d1b10c8632f7a42cd53db8a" x="95.410156"/>
</g>
</g>
</g>
<g id="ytick6">
<g id="line2d24">
<g ><use style="fill: none; stroke: #000000; stroke-width: 0.500000; stroke-linejoin: round; stroke-linecap: butt;  opacity: 1.000000" xlink:href="#m3400efa6b1638b3fea9e19e898273957" x="216.000000" y="292.757143"/>
</g></g>
<g id="line2d25">
<g ><use style="fill: none; stroke: #000000; stroke-width: 0.500000; stroke-linejoin: round; stroke-linecap: butt;  opacity: 1.000000" xlink:href="#m20b58b2501143cb5e0a5e8f1ef6f1643" x="1555.200000" y="292.757143"/>
</g></g>
<g id="text13">
<defs>
<path id="c_956f18cfdaf972f35a6c2b4aaac2532b" d="M8.203125 -72.906250l46.875000 0.000000l0.000000 4.203125l-26.468750 68.703125l-10.296875 0.000000l24.906250 -64.593750l-35.015625 0.000000z"/>
</defs>
<g style="fill: #000000; opacity: 1.000000" transform="translate(194.734375,297.124330)scale(0.120000)">
<use xlink:href="#c_7a2040fe3b94fcd41d0a72c84e93b115"/>
<use xlink:href="#c_ed3e21196fb739f392806f09ca0594ef" x="63.623047"/>
<use xlink:href="#c_956f18cfdaf972f35a6c2b4aaac2532b" x="95.410156"/>
</g>
</g>
</g>
<g id="ytick7">
<g id="line2d26">
<g ><use style="fill: none; stroke: #000000; stroke-width: 0.500000; stroke-linejoin: round; stroke-linecap: butt;  opacity: 1.000000" xlink:href="#m3400efa6b1638b3fea9e19e898273957" x="216.000000" y="190.928571"/>
</g></g>
<g id="line2d27">
<g ><use style="fill: none; stroke: #000000; stroke-width: 0.500000; stroke-linejoin: round; stroke-linecap: butt;  opacity: 1.000000" xlink:href="#m20b58b2501143cb5e0a5e8f1ef6f1643" x="1555.200000" y="190.928571"/>
</g></g>
<g id="text14">
<defs>
<path id="c_bef35738d52871942e50b9de9b122bab" d="M31.781250 -34.625000q-7.031250 0.000000 -11.062500 3.765625q-4.015625 3.765625 -4.015625 10.343750q0.000000 6.593750 4.015625 10.359375q4.031250 3.765625 11.062500 3.765625q7.031250 0.000000 11.078125 -3.781250q4.062500 -3.796875 4.062500 -10.343750q0.000000 -6.578125 -4.031250 -10.343750q-4.015625 -3.765625 -11.109375 -3.765625M21.921875 -38.812500q-6.343750 -1.562500 -9.890625 -5.906250q-3.531250 -4.359375 -3.531250 -10.609375q0.000000 -8.734375 6.218750 -13.812500q6.234375 -5.078125 17.062500 -5.078125q10.890625 0.000000 17.093750 5.078125q6.203125 5.078125 6.203125 13.812500q0.000000 6.250000 -3.546875 10.609375q-3.531250 4.343750 -9.828125 5.906250q7.125000 1.656250 11.093750 6.500000q3.984375 4.828125 3.984375 11.796875q0.000000 10.609375 -6.468750 16.281250q-6.468750 5.656250 -18.531250 5.656250q-12.046875 0.000000 -18.531250 -5.656250q-6.468750 -5.671875 -6.468750 -16.281250q0.000000 -6.968750 4.000000 -11.796875q4.015625 -4.843750 11.140625 -6.500000M18.312500 -54.390625q0.000000 5.656250 3.531250 8.828125q3.546875 3.171875 9.937500 3.171875q6.359375 0.000000 9.937500 -3.171875q3.593750 -3.171875 3.593750 -8.828125q0.000000 -5.671875 -3.593750 -8.843750q-3.578125 -3.171875 -9.937500 -3.171875q-6.390625 0.000000 -9.937500 3.171875q-3.531250 3.171875 -3.531250 8.843750"/>
</defs>
<g style="fill: #000000; opacity: 1.000000" transform="translate(194.531250,195.295759)scale(0.120000)">
<use xlink:href="#c_7a2040fe3b94fcd41d0a72c84e93b115"/>
<use xlink:href="#c_ed3e21196fb739f392806f09ca0594ef" x="63.623047"/>
<use xlink:href="#c_bef35738d52871942e50b9de9b122bab" x="95.410156"/>
</g>
</g>
</g>
<g id="text15">
<defs>
<path id="c_a61a29e824874b7d7ff806198f94f785" d="M3.328125 -72.906250l9.953125 0.000000l15.328125 61.625000l15.281250 -61.625000l11.093750 0.000000l15.328125 61.625000l15.281250 -61.625000l10.015625 0.000000l-18.312500 72.906250l-12.406250 0.000000l-15.375000 -63.281250l-15.531250 63.281250l-12.406250 0.000000z"/>
<path id="c_9c6d5cbc59c6231647eb409cc6b37bb3" d="M25.390625 -72.906250l8.296875 0.000000l-25.390625 82.187500l-8.296875 0.000000z"/>
<path id="c_8e0810ad13fe20a2a87a2619799b154d" d="M44.281250 -53.078125l0.000000 8.500000q-3.796875 -1.953125 -7.906250 -2.921875q-4.093750 -0.984375 -8.500000 -0.984375q-6.687500 0.000000 -10.031250 2.046875q-3.343750 2.046875 -3.343750 6.156250q0.000000 3.125000 2.390625 4.906250q2.390625 1.781250 9.625000 3.390625l3.078125 0.687500q9.562500 2.046875 13.593750 5.781250q4.031250 3.734375 4.031250 10.421875q0.000000 7.625000 -6.031250 12.078125q-6.031250 4.437500 -16.578125 4.437500q-4.390625 0.000000 -9.156250 -0.859375q-4.765625 -0.859375 -10.031250 -2.562500l0.000000 -9.281250q4.984375 2.593750 9.812500 3.890625q4.828125 1.281250 9.578125 1.281250q6.343750 0.000000 9.750000 -2.171875q3.421875 -2.171875 3.421875 -6.125000q0.000000 -3.656250 -2.468750 -5.609375q-2.453125 -1.953125 -10.812500 -3.765625l-3.125000 -0.734375q-8.343750 -1.750000 -12.062500 -5.390625q-3.703125 -3.640625 -3.703125 -9.984375q0.000000 -7.718750 5.468750 -11.906250q5.468750 -4.203125 15.531250 -4.203125q4.968750 0.000000 9.359375 0.734375q4.406250 0.718750 8.109375 2.187500"/>
</defs>
<g style="fill: #000000; opacity: 1.000000" transform="translate(189.375000,474.351563)rotate(-90.0)scale(0.120000)">
<use xlink:href="#c_a61a29e824874b7d7ff806198f94f785"/>
<use xlink:href="#c_6a63bda47b2f3da1cec6aadd80692cfe" x="96.626953"/>
<use xlink:href="#c_fe791a90f5471e2ab20a5ed41a7fa451" x="124.410156"/>
<use xlink:href="#c_d41d8cd98f00b204e9800998ecf8427e" x="187.789063"/>
<use xlink:href="#c_9c6d5cbc59c6231647eb409cc6b37bb3" x="219.576172"/>
<use xlink:href="#c_d41d8cd98f00b204e9800998ecf8427e" x="253.267578"/>
<use xlink:href="#c_07e3f33241aff50afcba519606f2a979" x="285.054688"/>
<use xlink:href="#c_f05dd90d41f04bb96ef1ca503cc2044b" x="339.017578"/>
<use xlink:href="#c_8e0810ad13fe20a2a87a2619799b154d" x="400.199219"/>
<use xlink:href="#c_8e0810ad13fe20a2a87a2619799b154d" x="452.298828"/>
</g>
</g>
</g>
<g id="patch3">
<path style="fill: none; stroke: #000000; stroke-width: 1.000000; stroke-linejoin: round; stroke-linecap: square;  opacity: 1.000000"  d="M216.000000 89.100000L1555.200000 89.100000"/>
</g>
<g id="patch4">
<path style="fill: none; stroke: #000000; stroke-width: 1.000000; stroke-linejoin: round; stroke-linecap: square;  opacity: 1.000000"  d="M1555.200000 801.900000L1555.200000 89.100000"/>
</g>
<g id="patch5">
<path style="fill: none; stroke: #000000; stroke-width: 1.000000; stroke-linejoin: round; stroke-linecap: square;  opacity: 1.000000"  d="M216.000000 801.900000L1555.200000 801.900000"/>
</g>
<g id="patch6">
<path style="fill: none; stroke: #000000; stroke-width: 1.000000; stroke-linejoin: round; stroke-linecap: square;  opacity: 1.000000"  d="M216.000000 801.900000L216.000000 89.100000"/>
</g>
<g id="legend1">
<g id="patch7">
<path style="fill: #4d4d4d; stroke: #4d4d4d; stroke-width: 1.000000; stroke-linejoin: round; stroke-linecap: square;  opacity: 0.500000"  d="M1376.566250 123.366875L1550.000000 123.366875L1550.000000 98.300000
L1376.566250 98.300000L1376.566250 123.366875z"/>
</g>
<g id="patch8">
<path style="fill: #ffffff; stroke: #000000; stroke-width: 1.000000; stroke-linejoin: round; stroke-linecap: square;  opacity: 1.000000"  d="M1374.566250 121.366875L1548.000000 121.366875L1548.000000 96.300000
L1374.566250 96.300000L1374.566250 121.366875z"/>
</g>
<g id="line2d28">
<path style="fill: none; stroke: #0000ff; stroke-width: 1.000000; stroke-linejoin: round; stroke-linecap: square;  opacity: 1.000000"  d="M1384.646250 107.660625L1404.806250 107.660625"/>
</g>
<g id="line2d29">
</g>
<g id="text16">
<defs>
<path id="c_4c6532c564269b2c70b230c2e45c01e4" d="M44.390625 -34.187500q3.171875 1.078125 6.171875 4.593750q3.000000 3.515625 6.031250 9.671875l10.015625 19.921875l-10.609375 0.000000l-9.312500 -18.703125q-3.625000 -7.328125 -7.015625 -9.718750q-3.390625 -2.390625 -9.250000 -2.390625l-10.750000 0.000000l0.000000 30.812500l-9.859375 0.000000l0.000000 -72.906250l22.265625 0.000000q12.500000 0.000000 18.656250 5.234375q6.156250 5.218750 6.156250 15.765625q0.000000 6.890625 -3.203125 11.437500q-3.203125 4.531250 -9.296875 6.281250M19.671875 -64.796875l0.000000 25.875000l12.406250 0.000000q7.125000 0.000000 10.765625 -3.296875q3.640625 -3.296875 3.640625 -9.687500q0.000000 -6.390625 -3.640625 -9.640625q-3.640625 -3.250000 -10.765625 -3.250000z"/>
<path id="c_3b515ad41f960e225ec85275856806ca" d="M8.500000 -21.578125l0.000000 -33.109375l8.984375 0.000000l0.000000 32.765625q0.000000 7.765625 3.015625 11.656250q3.031250 3.875000 9.093750 3.875000q7.265625 0.000000 11.484375 -4.640625q4.234375 -4.640625 4.234375 -12.656250l0.000000 -31.000000l8.984375 0.000000l0.000000 54.687500l-8.984375 0.000000l0.000000 -8.406250q-3.265625 4.984375 -7.593750 7.406250q-4.312500 2.421875 -10.031250 2.421875q-9.421875 0.000000 -14.312500 -5.859375q-4.875000 -5.859375 -4.875000 -17.140625M31.109375 -56.000000z"/>
<path id="c_c48ceabac27bf136feba2f4bf2716ab6" d="M2.984375 -54.687500l9.515625 0.000000l17.093750 45.890625l17.093750 -45.890625l9.515625 0.000000l-20.515625 54.687500l-12.203125 0.000000z"/>
</defs>
<g style="fill: #000000; opacity: 1.000000" transform="translate(1420.646250,112.700625)scale(0.144000)">
<use xlink:href="#c_4c6532c564269b2c70b230c2e45c01e4"/>
<use xlink:href="#c_3b515ad41f960e225ec85275856806ca" x="64.982422"/>
<use xlink:href="#c_fe791a90f5471e2ab20a5ed41a7fa451" x="128.361328"/>
<use xlink:href="#c_fe791a90f5471e2ab20a5ed41a7fa451" x="191.740234"/>
<use xlink:href="#c_6a63bda47b2f3da1cec6aadd80692cfe" x="255.119141"/>
<use xlink:href="#c_fe791a90f5471e2ab20a5ed41a7fa451" x="282.902344"/>
<use xlink:href="#c_e3864de5dabf2f8dd9eee74726882ec1" x="346.281250"/>
<use xlink:href="#c_d41d8cd98f00b204e9800998ecf8427e" x="409.757813"/>
<use xlink:href="#c_01d93a582460e35a7945ca50d148ffeb" x="441.544922"/>
<use xlink:href="#c_c48ceabac27bf136feba2f4bf2716ab6" x="502.824219"/>
<use xlink:href="#c_0bce5afba2dc6b9024b26277c38ad8e8" x="562.003906"/>
<use xlink:href="#c_6ec8d5749226675394676a5d2a3b468b" x="623.527344"/>
<use xlink:href="#c_01d93a582460e35a7945ca50d148ffeb" x="664.640625"/>
<use xlink:href="#c_e3864de5dabf2f8dd9eee74726882ec1" x="725.919922"/>
<use xlink:href="#c_0bce5afba2dc6b9024b26277c38ad8e8" x="789.396484"/>
</g>
</g>
</g>
</g>
</g>
</svg>
