<?xml version="1.0" standalone="no"?>
<!DOCTYPE svg PUBLIC "-//W3C//DTD SVG 1.1//EN"
  "http://www.w3.org/Graphics/SVG/1.1/DTD/svg11.dtd">
<!-- Created with matplotlib (http://matplotlib.sourceforge.net/) -->
<svg width="1728pt" height="891pt" viewBox="0 0 1728 891"
   xmlns="http://www.w3.org/2000/svg"
   xmlns:xlink="http://www.w3.org/1999/xlink"
   version="1.1"
   id="svg1">
<filter id="colorAdd"><feComposite in="SourceGraphic" in2="BackgroundImage" operator="arithmetic" k2="1" k3="1"/></filter>
<g id="figure1">
<g id="patch1">
<path style="fill: #ffffff; stroke: #ffffff; stroke-width: 1.000000; stroke-linejoin: round; stroke-linecap: square;  opacity: 1.000000"  d="M0.000000 891.000000L1728.000000 891.000000L1728.000000 0.000000
L0.000000 0.000000z"/>
</g>
<g id="axes1">
<g id="patch2">
<path style="fill: #ffffff; opacity: 1.000000"  d="M216.000000 801.900000L1555.200000 801.900000L1555.200000 89.100000
L216.000000 89.100000z"/>
</g>
<g id="line2d1">
<defs>
  <clipPath id="p80f05d78e10eae31a502a9fc5631256d">
<rect x="216.000000" y="89.100000" width="1339.200000" height="712.800000"/>
  </clipPath>
</defs><path style="fill: none; stroke: #0000ff; stroke-width: 1.000000; stroke-linejoin: round; stroke-linecap: square;  opacity: 1.000000" clip-path="url(#p80f05d78e10eae31a502a9fc5631256d)" d="M216.000000 496.929222L217.339200 751.822485L218.678400 666.858064
L220.017600 496.929222L221.356800 496.929222L222.696000 411.964800
L224.035200 496.929222L225.374400 433.205906L226.713600 440.286274
L228.052800 394.971916L229.392000 404.240762L230.731200 369.482590
L232.070400 379.286177L233.409600 351.275928L234.748800 360.986148
L236.088000 369.482590L237.427200 406.966893L238.766400 411.964800
L240.105600 389.605742L241.444800 420.461243L242.784000 424.102575
L245.462400 430.435327L246.801600 433.205906L249.480000 398.893351
L250.819200 421.405292L252.158400 424.102575L253.497600 409.034993
L254.836800 428.957685L257.515200 433.205906L258.854400 419.688839
L261.532800 424.102575L262.872000 411.964800L265.550400 416.436612
L268.228800 420.461243L269.568000 422.326315L272.246400 402.085217
L274.924800 406.300506L276.264000 419.353011L278.942400 401.344248
L280.281600 392.891155L282.960000 396.971079L284.299200 389.089764
L285.638400 391.124471L286.977600 383.643327L289.656000 387.689252
L290.995200 380.662119L292.334400 382.666724L293.673600 375.962927
L295.012800 377.979032L296.352000 371.571879L300.369600 377.448004
L301.708800 371.443307L304.387200 375.189155L307.065600 363.941432
L308.404800 373.123922L311.083200 376.562958L312.422400 371.228434
L313.761600 372.927093L315.100800 367.783301L316.440000 369.482590
L317.779200 377.758345L320.457600 380.775329L321.796800 388.599585
L323.136000 383.643327L324.475200 391.241771L328.492800 376.979451
L331.171200 368.017686L332.510400 375.275619L336.528000 362.480028
L337.867200 369.482590L339.206400 370.852984L343.224000 358.862037
L345.902400 372.083542L349.920000 375.791829L351.259200 371.981543
L352.598400 373.194628L353.937600 379.286177L355.276800 380.406587
L356.616000 386.315164L357.955200 387.348940L359.294400 393.083818
L361.972800 394.971916L364.651200 387.689252L365.990400 393.167362
L370.008000 382.666724L371.347200 379.286177L372.686400 380.283152
L374.025600 376.979451L375.364800 377.979032L378.043200 371.571879
L380.721600 373.593772L382.060800 370.502163L383.400000 371.505552
L387.417600 362.566881L390.096000 364.618215L394.113600 356.167270
L396.792000 365.734160L399.470400 360.247327L402.148800 362.199925
L406.166400 354.331592L408.844800 356.298456L411.523200 351.275928
L412.862400 352.260072L415.540800 347.391840L416.880000 351.758224
L419.558400 353.655884L420.897600 351.275928L422.236800 352.215627
L423.576000 349.875416L424.915200 354.059112L426.254400 354.963353
L427.593600 352.650016L428.932800 353.551761L431.611200 349.028192
L435.628800 351.717302L436.968000 349.521069L439.646400 351.275928
L442.324800 346.992008L443.664000 347.868834L445.003200 345.771589
L447.681600 347.509033L450.360000 355.000018L455.716800 346.825411
L458.395200 342.872854L459.734400 346.500410L461.073600 347.317958
L462.412800 345.371065L463.752000 348.926682L467.769600 343.184079
L469.108800 346.676350L474.465600 349.774348L475.804800 353.143278
L479.822400 347.597815L481.161600 350.909965L485.179200 345.507481
L486.518400 348.764664L487.857600 346.992008L489.196800 347.723409
L493.214400 342.522725L495.892800 348.848373L497.232000 349.550178
L498.571200 347.840709L501.249600 349.234060L502.588800 347.549914
L503.928000 350.601607L509.284800 353.262109L510.624000 351.605461
L511.963200 354.556408L514.641600 355.827594L515.980800 354.188994
L517.320000 354.820588L524.016000 346.862192L525.355200 347.509033
L526.694400 345.962396L528.033600 346.607553L530.712000 343.561241
L532.051200 346.359361L533.390400 344.850048L534.729600 345.486362
L536.068800 343.993264L537.408000 344.627853L538.747200 343.150641
L541.425600 344.411121L542.764800 347.114406L545.443200 348.327481
L548.121600 345.426398L552.139200 347.230003L556.156800 354.988659
L560.174400 350.711381L564.192000 352.392045L565.531200 350.997964
L566.870400 351.552836L572.227200 346.093508L573.566400 346.656327
L574.905600 345.319846L578.923200 346.992008L580.262400 345.673878
L581.601600 346.225905L589.636800 338.531265L592.315200 336.039147
L593.654400 336.607664L594.993600 338.967199L596.332800 337.732727
L597.672000 338.289358L600.350400 335.850840L603.028800 336.961725
L608.385600 332.202283L609.724800 332.760679L611.064000 331.593051
L613.742400 332.702689L616.420800 330.398956L617.760000 330.952213
L625.795200 324.232809L633.830400 317.771017L635.169600 318.341585
L636.508800 320.526900L639.187200 321.639848L640.526400 320.587970
L643.204800 321.690103L645.883200 319.612169L649.900800 321.248942
L651.240000 320.224076L652.579200 320.764458L653.918400 319.747319
L659.275200 321.882041L660.614400 323.938598L664.632000 325.483157
L665.971200 327.504619L668.649600 325.496584L669.988800 326.000798
L671.328000 325.007079L674.006400 326.009541L675.345600 325.024462
L676.684800 325.522737L679.363200 323.572420L682.041600 324.565869
L686.059200 321.690103L687.398400 322.186531L692.755200 318.432538
L695.433600 319.426949L696.772800 318.503937L698.112000 318.998190
L703.468800 315.361417L707.486400 316.841590L710.164800 315.059434
L711.504000 315.549649L712.843200 314.666834L714.182400 315.155473
L715.521600 314.278434L716.860800 316.124933L718.200000 316.605796
L720.878400 314.862605L722.217600 315.342992L727.574400 311.915312
L728.913600 312.397119L730.252800 314.200544L731.592000 314.673935
L732.931200 313.827601L735.609600 314.768997L736.948800 313.928930
L740.966400 315.325879L744.984000 312.839642L746.323200 313.303344
L747.662400 315.045586L749.001600 315.501435L750.340800 314.680538
L751.680000 315.135024L753.019200 316.855374L757.036800 314.413058
L759.715200 315.309943L765.072000 312.116101L767.750400 313.011080
L769.089600 312.223958L770.428800 312.669031L771.768000 314.337413
L773.107200 314.775283L777.124800 312.435050L778.464000 312.873278
L779.803200 312.101405L782.481600 312.973234L783.820800 312.206574
L785.160000 312.640195L787.838400 311.119179L789.177600 312.740616
L790.516800 311.983412L793.195200 312.839642L797.212800 310.593457
L798.552000 312.190067L802.569600 309.968787L805.248000 310.816680
L806.587200 310.084386L809.265600 310.926029L814.622400 308.035107
L815.961600 308.455806L818.640000 307.030914L819.979200 307.451043
L821.318400 306.743961L823.996800 307.579940L826.675200 306.177589
L830.692800 307.421621L834.710400 305.346380L836.049600 305.759274
L837.388800 305.074077L840.067200 308.078966L845.424000 305.353393
L849.441600 306.565898L850.780800 305.893428L853.459200 306.694417
L854.798400 306.025899L860.155200 307.610159L861.494400 309.057582
L862.833600 309.445747L864.172800 308.781204L868.190400 309.937852
L874.886400 306.664068L876.225600 307.049220L877.564800 306.402944
L880.243200 307.169649L889.617600 302.724830L890.956800 303.109394
L892.296000 302.484953L893.635200 302.868473L894.974400 302.246965
L896.313600 302.629445L897.652800 304.010006L898.992000 304.387539
L903.009600 302.535916L904.348800 302.913378L905.688000 304.277336
L907.027200 304.649971L908.366400 304.037022L915.062400 305.881116
L916.401600 307.218587L921.758400 308.655788L923.097600 309.975372
L928.454400 311.378403L932.472000 309.563651L935.150400 310.260177
L937.828800 309.063446L939.168000 309.410702L940.507200 308.816112
L943.185600 309.507704L944.524800 310.786985L948.542400 309.015210
L951.220800 309.698534L952.560000 309.113133L956.577600 310.130187
L957.916800 311.385296L959.256000 310.802126L961.934400 311.469249
L963.273600 310.889058L965.952000 311.552303L968.630400 310.399871
L969.969600 310.730596L971.308800 310.157875L972.648000 310.487859
L973.987200 309.917586L975.326400 311.144343L976.665600 310.574920
L978.004800 310.901857L980.683200 309.769832L982.022400 310.096463
L986.040000 308.414412L990.057600 309.391173L991.396800 308.835572
L995.414400 309.803464L996.753600 309.250963L1000.771200 310.210136
L1003.449600 309.113133L1004.788800 309.431465L1006.128000 308.886137
L1007.467200 309.203778L1011.484800 307.579940L1012.824000 308.752987
L1016.841600 307.142251L1027.555200 309.643562L1030.233600 308.584446
L1032.912000 309.200959L1034.251200 308.674720L1038.268800 309.593034
L1039.608000 309.069576L1040.947200 309.374049L1043.625600 308.332914
L1044.964800 308.637101L1048.982400 307.088974L1050.321600 308.210171
L1053.000000 307.184396L1054.339200 307.487019L1055.678400 306.976917
L1058.356800 307.579940L1059.696000 307.072116L1062.374400 309.282680
L1063.713600 309.578653L1065.052800 309.070879L1070.409600 310.246831
L1071.748800 309.741981L1074.427200 310.325119L1075.766400 309.822503
L1081.123200 310.979267L1082.462400 310.479520L1085.140800 311.053211
L1086.480000 310.555653L1087.819200 310.841502L1089.158400 310.345791
L1090.497600 311.410577L1095.854400 309.439344L1097.193600 309.723851
L1098.532800 309.235091L1099.872000 309.519046L1102.550400 308.546568
L1103.889600 308.830277L1105.228800 308.346536L1107.907200 308.912002
L1115.942400 306.043330L1117.281600 307.082904L1118.620800 307.364157
L1119.960000 306.890457L1123.977600 307.730098L1125.316800 307.258646
L1127.995200 307.814865L1129.334400 308.838146L1130.673600 309.113133
L1137.369600 306.776627L1140.048000 307.326997L1141.387200 306.864303
L1142.726400 307.138567L1144.065600 308.146603L1145.404800 308.418232
L1146.744000 307.956630L1148.083200 308.227752L1149.422400 309.228452
L1150.761600 309.496979L1152.100800 310.493006L1153.440000 310.031736
L1154.779200 310.297972L1156.118400 309.838291L1157.457600 310.104046
L1158.796800 309.645944L1160.136000 309.911218L1162.814400 308.999443
L1168.171200 310.055228L1169.510400 309.602335L1170.849600 309.864698
L1172.188800 310.839315L1173.528000 310.387224L1177.545600 311.165564
L1178.884800 310.715532L1182.902400 311.488203L1184.241600 311.040212
L1185.580800 311.296610L1186.920000 312.254488L1194.955200 309.589637
L1200.312000 310.607787L1201.651200 310.168893L1204.329600 310.674334
L1205.668800 310.237129L1207.008000 310.489075L1209.686400 309.618694
L1216.382400 310.870770L1217.721600 310.438556L1219.060800 311.366926
L1227.096000 308.793718L1229.774400 309.290117L1232.452800 308.442361
L1233.792000 308.690044L1237.809600 307.427424L1239.148800 307.675138
L1240.488000 307.256689L1241.827200 308.168630L1245.844800 306.917880
L1249.862400 307.655311L1251.201600 307.241212L1252.540800 307.485970
L1253.880000 308.387040L1255.219200 308.629694L1256.558400 308.216471
L1257.897600 308.458721L1259.236800 308.046778L1261.915200 308.529853
L1263.254400 309.421534L1265.932800 308.600441L1267.272000 309.488628
L1268.611200 309.079040L1269.950400 309.317429L1271.289600 308.909096
L1272.628800 309.147096L1273.968000 308.740011L1277.985600 309.451053
L1279.324800 309.045634L1280.664000 309.281668L1282.003200 310.156742
L1283.342400 309.751963L1284.681600 309.986227L1286.020800 309.582673
L1287.360000 309.816564L1288.699200 309.414227L1294.056000 310.344823
L1295.395200 309.944324L1296.734400 310.175741L1298.073600 309.776442
L1299.412800 310.007495L1300.752000 310.866568L1302.091200 311.095709
L1303.430400 310.697243L1304.769600 311.552303L1308.787200 312.233001
L1310.126400 313.082002L1311.465600 312.684030L1312.804800 313.530410
L1314.144000 313.132861L1315.483200 313.356458L1316.822400 312.960086
L1318.161600 313.183350L1319.500800 312.788149L1320.840000 313.011080
L1326.196800 311.440630L1331.553600 312.330263L1332.892800 311.940817
L1334.232000 312.162095L1336.910400 311.386393L1338.249600 311.607540
L1339.588800 311.221272L1340.928000 311.442090L1344.945600 310.289368
L1346.284800 310.510243L1348.963200 309.746683L1351.641600 310.187632
L1352.980800 311.007076L1354.320000 310.626507L1355.659200 311.443513
L1356.998400 311.063325L1358.337600 311.280966L1359.676800 312.094340
L1361.016000 311.714724L1362.355200 311.930844L1363.694400 311.552303
L1369.051200 312.412520L1373.068800 311.284417L1374.408000 311.498787
L1377.086400 310.751423L1378.425600 311.552303L1379.764800 311.179418
L1381.104000 311.392678L1389.139200 309.174321L1394.496000 310.026783
L1399.852800 308.567420L1401.192000 308.780018L1402.531200 308.417406
L1403.870400 308.629694L1405.209600 308.268066L1406.548800 309.052839
L1409.227200 309.474086L1413.244800 308.393646L1415.923200 308.814015
L1418.601600 308.098395L1419.940800 308.308207L1423.958400 307.241212
L1426.636800 307.660412L1427.976000 307.306639L1431.993600 307.932456
L1433.332800 307.579940L1436.011200 307.995180L1438.689600 307.293096
L1441.368000 307.707148L1442.707200 307.357569L1444.046400 308.119397
L1445.385600 308.324848L1446.724800 307.975737L1448.064000 308.180898
L1456.099200 306.102981L1457.438400 306.857952L1458.777600 306.513802
L1460.116800 307.266707L1462.795200 306.579746L1465.473600 306.987346
L1468.152000 306.303918L1469.491200 306.507360L1470.830400 306.166886
L1472.169600 306.370041L1476.187200 305.353393L1480.204800 305.961570
L1481.544000 306.702325L1482.883200 306.364881L1484.222400 306.565898
L1485.561600 306.229309L1488.240000 306.630360L1489.579200 306.294764
L1490.918400 307.029728L1492.257600 307.228784L1494.936000 306.559148
L1496.275200 307.290764L1498.953600 306.623094L1500.292800 306.821329
L1502.971200 306.156717L1504.310400 306.354819L1505.649600 307.081334
L1508.328000 307.474394L1509.667200 307.143131L1511.006400 307.339191
L1524.398400 304.065198L1525.737600 304.262199L1529.755200 303.293402
L1536.451200 304.274333L1537.790400 303.953350L1541.808000 304.537535
L1544.486400 303.898271L1545.825600 304.092467L1547.164800 304.798621
L1552.521600 303.526725L1555.200000 303.913144L1556.539200 303.597006
L1556.539200 303.597006"/>
</g>
<g id="line2d2">
<path style="fill: none; stroke: #008000; stroke-width: 1.000000; stroke-linejoin: round; stroke-linecap: square;  opacity: 1.000000" clip-path="url(#p80f05d78e10eae31a502a9fc5631256d)" d="M216.000000 496.929222L217.339200 522.418548L218.678400 521.144082
L220.017600 494.444012L221.356800 494.568273L222.696000 469.196994
L224.035200 496.072932L225.374400 470.626420L226.713600 471.941560
L228.052800 447.701617L229.392000 450.162997L230.731200 427.011982
L232.070400 430.507844L233.409600 408.339586L236.088000 416.977076
L237.427200 446.464009L238.766400 448.987270L240.105600 425.895041
L241.444800 454.936077L244.123200 459.030408L246.801600 462.725543
L249.480000 416.356215L250.819200 445.874192L252.158400 448.426943
L253.497600 425.362731L254.836800 454.430382L257.515200 458.574018
L258.854400 435.002452L261.532800 441.040312L262.872000 418.345431
L265.550400 426.007351L268.228800 432.922233L269.568000 436.122583
L272.246400 392.347044L274.924800 402.543806L276.264000 432.752403
L278.942400 389.305457L280.281600 369.197318L282.960000 381.651179
L284.299200 361.925755L285.638400 368.675928L286.977600 349.599266
L289.656000 363.963937L290.995200 345.122875L292.334400 352.713192
L293.673600 334.434667L295.012800 342.559395L296.352000 324.788560
L299.030400 341.572275L300.369600 349.340122L301.708800 331.230251
L304.387200 347.385900L307.065600 312.262188L308.404800 346.984866
L311.083200 361.604440L312.422400 342.881353L313.761600 350.583747
L315.100800 332.411694L316.440000 340.637570L317.779200 373.941479
L320.457600 385.932784L321.796800 416.971932L323.136000 395.480470
L324.475200 426.042234L327.153600 383.249529L329.832000 344.629113
L331.171200 326.754792L332.510400 360.752840L335.188800 324.325851
L336.528000 307.466693L337.867200 342.429146L339.206400 350.154149
L341.884800 314.760533L343.224000 298.379641L345.902400 367.442411
L348.580800 380.067375L349.920000 385.910468L351.259200 365.972079
L352.598400 372.519936L353.937600 404.229727L355.276800 408.864701
L356.616000 438.757254L357.955200 441.665852L359.294400 469.918347
L361.972800 472.551907L364.651200 425.224509L365.990400 454.299071
L368.668800 408.751324L371.347200 367.644483L372.686400 374.108720
L374.025600 354.760419L375.364800 361.868859L378.043200 325.333058
L380.721600 342.063684L382.060800 324.317634L383.400000 332.948214
L386.078400 299.232176L387.417600 283.627701L390.096000 304.424600
L392.774400 273.489614L394.113600 259.172268L396.792000 332.057757
L399.470400 298.428539L402.148800 317.782355L404.827200 285.544988
L406.166400 270.624874L408.844800 292.689548L411.523200 262.898729
L412.862400 274.600254L415.540800 246.573142L416.880000 284.580272
L419.558400 305.284295L420.897600 289.377215L422.236800 299.754815
L423.576000 284.124209L424.915200 320.253786L426.254400 329.087558
L427.593600 311.990315L428.932800 321.237260L431.611200 288.663040
L434.289600 308.968993L435.628800 318.367004L436.968000 301.805789
L439.646400 320.830323L442.324800 288.295780L443.664000 298.727452
L445.003200 283.148214L447.681600 303.991862L450.360000 372.507441
L453.038400 334.934378L455.716800 301.024689L458.395200 270.421195
L459.734400 307.235922L461.073600 316.720587L462.412800 300.241693
L463.752000 335.565395L466.430400 301.594182L467.769600 285.871608
L469.108800 321.913815L471.787200 338.977817L474.465600 354.378079
L475.804800 386.994962L478.483200 348.009366L479.822400 329.966033
L481.161600 363.803518L483.840000 327.079088L485.179200 310.082268
L486.518400 344.913942L487.857600 327.025380L489.196800 335.520572
L491.875200 301.553729L493.214400 285.833177L495.892800 356.119228
L497.232000 363.159728L498.571200 344.358876L501.249600 359.234485
L502.588800 340.629895L503.928000 373.934188L506.606400 385.926204
L509.284800 396.748998L510.624000 376.268683L511.963200 407.791036
L514.641600 416.482009L515.980800 395.015043L517.320000 400.110752
L519.998400 359.846367L522.676800 323.507759L524.016000 306.689505
L525.355200 316.201491L526.694400 299.748551L528.033600 309.607585
L530.712000 278.167258L532.051200 314.594683L533.390400 298.222083
L534.729600 308.157440L536.068800 292.106703L537.408000 302.347829
L538.747200 286.587572L541.425600 307.095883L542.764800 342.076876
L545.443200 357.174980L548.121600 321.096832L550.800000 338.240490
L552.139200 346.174927L554.817600 410.577657L556.156800 440.384561
L558.835200 396.193479L560.174400 375.740940L562.852800 387.556798
L564.192000 393.025419L565.531200 372.731283L566.870400 378.941180
L569.548800 340.740827L572.227200 306.265009L573.566400 315.798220
L574.905600 299.365444L577.584000 318.627912L578.923200 327.542977
L580.262400 310.522963L581.601600 319.843276L584.280000 287.404970
L586.958400 258.129398L589.636800 231.708194L592.315200 207.863058
L593.654400 222.316366L594.993600 261.536335L596.332800 247.816653
L597.672000 260.272282L600.350400 233.642147L603.028800 259.312637
L605.707200 232.776067L608.385600 208.826814L609.724800 223.231934
L611.064000 211.427472L613.742400 239.263893L616.420800 214.682076
L617.760000 228.794433L620.438400 205.233389L623.116800 183.969546
L625.795200 164.778928L628.473600 147.459395L631.152000 131.828517
L633.830400 117.721649L635.169600 136.682028L636.508800 180.183714
L639.187200 211.066401L640.526400 199.870216L643.204800 228.833469
L645.883200 205.268618L648.561600 233.705527L649.900800 246.866712
L651.240000 233.880511L652.579200 247.032946L653.918400 234.038434
L656.596800 259.670286L659.275200 282.803032L660.614400 318.998668
L663.292800 336.346897L664.632000 344.376013L665.971200 377.493000
L668.649600 339.433845L669.988800 347.308614L671.328000 329.300318
L674.006400 345.644136L675.345600 327.719064L676.684800 336.179572
L679.363200 302.148476L682.041600 321.139599L684.720000 288.574901
L686.059200 273.503290L687.398400 284.674587L690.076800 255.665228
L692.755200 229.484281L695.433600 255.560162L696.772800 242.139289
L698.112000 254.878786L700.790400 228.774517L703.468800 205.215414
L706.147200 233.657510L707.486400 246.821096L710.164800 221.502452
L711.504000 235.273790L712.843200 222.867235L714.182400 236.570335
L715.521600 224.098953L716.860800 263.229793L718.200000 274.914764
L720.878400 246.856987L722.217600 259.360599L724.896000 232.819353
L727.574400 208.865879L728.913600 223.269046L730.252800 262.441381
L731.592000 274.165773L732.931200 259.814619L735.609600 282.933293
L736.948800 268.143763L739.627200 290.450345L740.966400 300.774289
L743.644800 270.195209L744.984000 256.042583L746.323200 268.086915
L747.662400 305.018357L749.001600 314.613900L750.340800 298.240340
L751.680000 308.174784L753.019200 343.101832L755.697600 308.395816
L757.036800 292.333160L759.715200 312.281276L762.393600 280.580264
L765.072000 251.970101L767.750400 275.853615L769.089600 261.418069
L770.428800 273.193627L771.768000 309.869733L773.107200 319.222708
L775.785600 286.844906L777.124800 271.859796L778.464000 283.113267
L779.803200 268.314738L782.481600 290.604650L783.820800 275.431553
L785.160000 286.506436L787.838400 257.318471L789.177600 294.788335
L790.516800 279.406053L793.195200 300.614562L795.873600 270.051055
L797.212800 255.905637L798.552000 293.446143L801.230400 263.581556
L802.569600 249.759613L805.248000 273.858650L806.587200 259.522852
L809.265600 282.669973L811.944000 253.856064L814.622400 227.851510
L815.961600 241.305396L818.640000 216.524532L819.979200 230.544767
L821.318400 218.374663L823.996800 245.533733L826.675200 220.340606
L829.353600 247.307996L830.692800 259.789058L833.371200 233.206037
L834.710400 220.902870L836.049600 234.704188L837.388800 222.326113
L840.067200 298.804103L842.745600 268.417115L845.424000 240.992859
L848.102400 265.946655L849.441600 277.495783L850.780800 262.978129
L853.459200 285.788360L854.798400 270.856077L857.476800 292.898208
L860.155200 312.791232L861.494400 347.487458L862.833600 354.959546
L864.172800 336.568704L866.851200 352.203854L868.190400 359.440123
L870.868800 323.141123L873.547200 290.381276L874.886400 275.219347
L876.225600 286.304841L877.564800 271.346734L880.243200 293.341026
L882.921600 263.486689L885.600000 236.543150L888.278400 212.226605
L889.617600 200.972410L890.956800 215.770250L892.296000 204.338872
L893.635200 218.968390L894.974400 207.377105L896.313600 221.854711
L897.652800 261.097763L898.992000 272.889336L901.670400 245.029038
L903.009600 232.134721L904.348800 245.374446L905.688000 283.441511
L907.027200 294.115897L908.366400 278.767237L911.044800 300.038030
L913.723200 319.234921L915.062400 328.119636L916.401600 362.049442
L919.080000 375.200220L921.758400 387.068798L923.097600 418.051146
L925.776000 425.741758L928.454400 432.682536L931.132800 389.242401
L932.472000 369.137416L935.150400 381.597117L937.828800 343.137811
L939.168000 350.827381L940.507200 332.643147L943.185600 348.661039
L944.524800 381.563775L947.203200 343.107719L948.542400 325.309468
L951.220800 342.042394L952.560000 324.297409L955.238400 341.129011
L956.577600 348.919021L957.916800 381.808858L959.256000 362.075550
L961.934400 375.223783L963.273600 355.819728L965.952000 369.577904
L968.630400 332.290471L969.969600 340.522408L971.308800 322.853423
L972.648000 331.557213L973.987200 314.336487L975.326400 348.955450
L976.665600 330.864812L978.004800 339.168033L980.683200 304.845562
L982.022400 314.449745L984.700800 282.537308L986.040000 267.767577
L988.718400 290.110837L990.057600 300.451757L991.396800 284.786303
L994.075200 305.470238L995.414400 315.043187L996.753600 298.648163
L999.432000 317.980566L1000.771200 326.927999L1003.449600 293.798931
L1004.788800 303.955446L1006.128000 288.114808L1007.467200 298.555529
L1010.145600 268.192778L1011.484800 254.140274L1012.824000 291.769047
L1015.502400 262.067978L1016.841600 248.321714L1019.520000 272.560946
L1022.198400 294.436853L1024.876800 314.179859L1027.555200 331.997922
L1030.233600 298.374537L1032.912000 317.733619L1034.251200 301.204072
L1036.929600 320.287274L1038.268800 329.119372L1039.608000 312.020538
L1040.947200 321.265972L1043.625600 288.688953L1044.964800 299.100966
L1047.643200 268.685035L1048.982400 254.607918L1050.321600 292.213309
L1053.000000 262.468924L1054.339200 274.191939L1055.678400 259.839477
L1058.356800 282.955727L1059.696000 268.165075L1062.374400 340.173766
L1063.713600 348.011539L1065.052800 329.968097L1067.731200 346.246806
L1070.409600 360.938342L1071.748800 342.248559L1074.427200 357.329924
L1075.766400 338.820562L1078.444800 354.236157L1081.123200 368.148731
L1082.462400 349.098429L1085.140800 363.511931L1086.480000 344.693469
L1087.819200 352.305257L1089.158400 334.047129L1090.497600 367.680560
L1093.176000 330.578118L1095.854400 297.093164L1097.193600 307.084967
L1098.532800 291.087853L1099.872000 301.379922L1102.550400 270.741792
L1103.889600 282.051164L1105.228800 267.305740L1107.907200 289.694030
L1110.585600 260.195274L1113.264000 233.572648L1115.942400 209.545727
L1117.281600 249.404229L1118.620800 261.780478L1119.960000 248.048589
L1122.638400 272.314451L1123.977600 283.545189L1125.316800 268.725064
L1127.995200 290.974970L1129.334400 326.762009L1130.673600 335.270369
L1133.352000 301.327921L1136.030400 270.694862L1137.369600 256.517253
L1140.048000 279.957420L1141.387200 265.316684L1142.726400 276.897311
L1144.065600 313.388233L1145.404800 322.565282L1146.744000 305.794153
L1148.083200 315.350906L1149.422400 349.919148L1150.761600 357.269652
L1152.100800 389.741957L1153.440000 369.611994L1154.779200 375.977855
L1156.118400 356.536097L1157.457600 363.555753L1158.796800 344.735100
L1160.136000 352.344806L1162.814400 316.737600L1165.492800 334.306284
L1168.171200 350.162020L1169.510400 332.011054L1170.849600 340.256962
L1172.188800 373.579901L1173.528000 354.258041L1176.206400 368.168481
L1177.545600 374.606518L1178.884800 355.233327L1181.563200 369.048677
L1182.902400 375.442704L1184.241600 356.027704L1185.580800 363.072779
L1186.920000 395.254928L1189.598400 355.463985L1192.276800 319.552659
L1194.955200 287.142688L1197.633600 307.596875L1200.312000 326.056779
L1201.651200 309.111074L1204.329600 327.423344L1205.668800 310.409311
L1207.008000 319.735307L1209.686400 287.307527L1212.364800 307.745642
L1215.043200 326.191041L1216.382400 334.727950L1217.721600 317.348688
L1219.060800 351.817041L1221.739200 316.261292L1224.417600 284.172229
L1227.096000 255.211849L1229.774400 278.779293L1232.452800 250.344725
L1233.792000 262.673949L1236.470400 235.809652L1237.809600 223.376304
L1239.148800 237.053950L1240.488000 224.558387L1241.827200 263.666255
L1244.505600 236.705208L1245.844800 224.227083L1248.523200 250.815541
L1249.862400 263.121225L1251.201600 249.322299L1252.540800 261.702645
L1253.880000 298.953300L1255.219200 308.852096L1256.558400 292.766626
L1257.897600 302.974756L1259.236800 287.183153L1261.915200 307.633394
L1263.254400 342.587512L1265.932800 307.931642L1267.272000 342.870848
L1268.611200 325.084440L1269.950400 333.676679L1271.289600 316.349980
L1272.628800 325.378942L1273.968000 308.467130L1276.646400 326.842184
L1277.985600 335.346535L1279.324800 317.936343L1280.664000 326.885987
L1282.003200 360.877475L1283.342400 342.190736L1284.681600 349.927661
L1286.020800 331.788412L1287.360000 340.045453L1288.699200 322.400315
L1291.377600 339.416883L1294.056000 354.774336L1295.395200 336.392754
L1296.734400 344.419578L1298.073600 326.555733L1299.412800 335.074408
L1300.752000 368.656475L1302.091200 375.070112L1303.430400 355.673741
L1304.769600 388.225842L1307.448000 398.824421L1308.787200 403.729661
L1310.126400 433.878966L1311.465600 411.542152L1312.804800 441.300832
L1314.144000 418.592925L1315.483200 422.509740L1316.822400 400.741388
L1318.161600 405.550779L1319.500800 384.630375L1320.840000 390.245317
L1323.518400 350.942812L1326.196800 315.472300L1328.875200 333.164350
L1331.553600 349.131425L1332.892800 331.031989L1334.232000 339.326850
L1336.910400 304.988895L1338.249600 314.585911L1339.588800 298.213751
L1340.928000 308.149524L1343.606400 276.851358L1344.945600 262.365925
L1346.284800 274.094090L1348.963200 246.116329L1351.641600 270.570586
L1352.980800 307.377844L1354.320000 291.366087L1355.659200 327.133570
L1356.998400 310.134026L1358.337600 319.473786L1359.676800 353.835884
L1361.016000 335.501224L1362.355200 343.572624L1363.694400 325.751128
L1366.372800 342.440992L1369.051200 357.503594L1371.729600 321.393407
L1373.068800 304.680871L1374.408000 314.293288L1377.086400 282.396106
L1378.425600 318.612088L1379.764800 302.038618L1381.104000 311.783148
L1383.782400 280.130704L1386.460800 251.564373L1389.139200 225.783259
L1391.817600 252.219991L1394.496000 276.079141L1397.174400 247.907837
L1399.852800 222.483236L1401.192000 236.205535L1402.531200 223.752393
L1403.870400 237.411235L1405.209600 224.897808L1406.548800 263.988705
L1409.227200 286.700405L1411.905600 257.493528L1413.244800 243.975987
L1415.923200 268.638927L1418.601600 241.193044L1419.940800 253.979853
L1422.619200 227.963230L1423.958400 215.922203L1426.636800 243.320388
L1427.976000 230.511503L1430.654400 256.487231L1431.993600 268.509330
L1433.332800 254.440998L1436.011200 278.083600L1438.689600 249.716862
L1441.368000 273.820067L1442.707200 259.486198L1444.046400 296.847676
L1445.385600 306.851753L1446.724800 290.866300L1448.064000 301.169446
L1450.742400 270.551838L1453.420800 242.919446L1456.099200 217.981213
L1457.438400 257.417940L1458.777600 243.904178L1460.116800 282.044756
L1462.795200 253.291805L1465.473600 277.046453L1468.152000 248.780837
L1469.491200 261.188256L1470.830400 247.485978L1472.169600 259.958140
L1474.848000 233.358634L1476.187200 221.047837L1478.865600 247.946272
L1480.204800 260.395420L1481.544000 297.711436L1482.883200 282.182999
L1484.222400 292.920310L1485.561600 277.631429L1488.240000 299.012964
L1489.579200 283.419451L1490.918400 319.584266L1492.257600 328.451513
L1494.936000 295.173904L1496.275200 330.750996L1498.953600 297.249186
L1500.292800 307.233188L1502.971200 276.024365L1504.310400 287.069608
L1505.649600 323.051915L1508.328000 340.004952L1509.667200 322.361839
L1511.006400 331.090209L1513.684800 297.555326L1516.363200 267.290094
L1519.041600 239.975723L1521.720000 215.324503L1524.398400 193.076776
L1525.737600 208.269399L1528.416000 186.709545L1529.755200 176.731202
L1532.433600 207.950509L1535.112000 236.125934L1536.451200 249.166098
L1537.790400 236.064928L1540.468800 261.499197L1541.808000 273.270698
L1544.486400 245.373218L1545.825600 257.951018L1547.164800 295.389254
L1549.843200 265.335215L1552.521600 238.211444L1555.200000 263.436427
L1556.539200 249.621741L1556.539200 249.621741"/>
</g>
<g id="matplotlib.axis1">
<g id="xtick1">
<g id="line2d3">
<defs><path id="m30e32995789d870ad79a2e54c91cf9c6" d="M0.000000 0.000000L0.000000 -4.000000"/></defs>
<g ><use style="fill: none; stroke: #000000; stroke-width: 0.500000; stroke-linejoin: round; stroke-linecap: butt;  opacity: 1.000000" xlink:href="#m30e32995789d870ad79a2e54c91cf9c6" x="216.000000" y="801.900000"/>
</g></g>
<g id="line2d4">
<defs><path id="m9281cae24120827b11d5ea8a7ad3e96b" d="M0.000000 0.000000L0.000000 4.000000"/></defs>
<g ><use style="fill: none; stroke: #000000; stroke-width: 0.500000; stroke-linejoin: round; stroke-linecap: butt;  opacity: 1.000000" xlink:href="#m9281cae24120827b11d5ea8a7ad3e96b" x="216.000000" y="89.100000"/>
</g></g>
<g id="text1">
<defs>
<path id="c_7a2040fe3b94fcd41d0a72c84e93b115" d="M31.781250 -66.406250q-7.609375 0.000000 -11.453125 7.500000q-3.828125 7.484375 -3.828125 22.531250q0.000000 14.984375 3.828125 22.484375q3.843750 7.500000 11.453125 7.500000q7.671875 0.000000 11.500000 -7.500000q3.843750 -7.500000 3.843750 -22.484375q0.000000 -15.046875 -3.843750 -22.531250q-3.828125 -7.500000 -11.500000 -7.500000M31.781250 -74.218750q12.265625 0.000000 18.734375 9.703125q6.468750 9.687500 6.468750 28.140625q0.000000 18.406250 -6.468750 28.109375q-6.468750 9.687500 -18.734375 9.687500q-12.250000 0.000000 -18.718750 -9.687500q-6.468750 -9.703125 -6.468750 -28.109375q0.000000 -18.453125 6.468750 -28.140625q6.468750 -9.703125 18.718750 -9.703125"/>
</defs>
<g style="fill: #000000; opacity: 1.000000" transform="translate(212.976562,814.806250)scale(0.120000)">
<use xlink:href="#c_7a2040fe3b94fcd41d0a72c84e93b115"/>
</g>
</g>
</g>
<g id="xtick2">
<g id="line2d5">
<g ><use style="fill: none; stroke: #000000; stroke-width: 0.500000; stroke-linejoin: round; stroke-linecap: butt;  opacity: 1.000000" xlink:href="#m30e32995789d870ad79a2e54c91cf9c6" x="483.840000" y="801.900000"/>
</g></g>
<g id="line2d6">
<g ><use style="fill: none; stroke: #000000; stroke-width: 0.500000; stroke-linejoin: round; stroke-linecap: butt;  opacity: 1.000000" xlink:href="#m9281cae24120827b11d5ea8a7ad3e96b" x="483.840000" y="89.100000"/>
</g></g>
<g id="text2">
<defs>
<path id="c_ed3f3ed3ebfbd18bcb9c012009a68ad1" d="M19.187500 -8.296875l34.421875 0.000000l0.000000 8.296875l-46.281250 0.000000l0.000000 -8.296875q5.609375 -5.812500 15.296875 -15.593750q9.703125 -9.796875 12.187500 -12.640625q4.734375 -5.312500 6.609375 -9.000000q1.890625 -3.687500 1.890625 -7.250000q0.000000 -5.812500 -4.078125 -9.468750q-4.078125 -3.671875 -10.625000 -3.671875q-4.640625 0.000000 -9.796875 1.609375q-5.140625 1.609375 -11.000000 4.890625l0.000000 -9.968750q5.953125 -2.390625 11.125000 -3.609375q5.187500 -1.218750 9.484375 -1.218750q11.328125 0.000000 18.062500 5.671875q6.734375 5.656250 6.734375 15.125000q0.000000 4.500000 -1.687500 8.531250q-1.671875 4.015625 -6.125000 9.484375q-1.218750 1.421875 -7.765625 8.187500q-6.531250 6.765625 -18.453125 18.921875"/>
</defs>
<g style="fill: #000000; opacity: 1.000000" transform="translate(473.215000,814.806250)scale(0.120000)">
<use xlink:href="#c_ed3f3ed3ebfbd18bcb9c012009a68ad1"/>
<use xlink:href="#c_7a2040fe3b94fcd41d0a72c84e93b115" x="63.623047"/>
<use xlink:href="#c_7a2040fe3b94fcd41d0a72c84e93b115" x="127.246094"/>
</g>
</g>
</g>
<g id="xtick3">
<g id="line2d7">
<g ><use style="fill: none; stroke: #000000; stroke-width: 0.500000; stroke-linejoin: round; stroke-linecap: butt;  opacity: 1.000000" xlink:href="#m30e32995789d870ad79a2e54c91cf9c6" x="751.680000" y="801.900000"/>
</g></g>
<g id="line2d8">
<g ><use style="fill: none; stroke: #000000; stroke-width: 0.500000; stroke-linejoin: round; stroke-linecap: butt;  opacity: 1.000000" xlink:href="#m9281cae24120827b11d5ea8a7ad3e96b" x="751.680000" y="89.100000"/>
</g></g>
<g id="text3">
<defs>
<path id="c_a0416418d96557a09b8c1332d34883ba" d="M37.796875 -64.312500l-24.906250 38.921875l24.906250 0.000000zM35.203125 -72.906250l12.406250 0.000000l0.000000 47.515625l10.406250 0.000000l0.000000 8.203125l-10.406250 0.000000l0.000000 17.187500l-9.812500 0.000000l0.000000 -17.187500l-32.906250 0.000000l0.000000 -9.515625z"/>
</defs>
<g style="fill: #000000; opacity: 1.000000" transform="translate(740.914375,814.806250)scale(0.120000)">
<use xlink:href="#c_a0416418d96557a09b8c1332d34883ba"/>
<use xlink:href="#c_7a2040fe3b94fcd41d0a72c84e93b115" x="63.623047"/>
<use xlink:href="#c_7a2040fe3b94fcd41d0a72c84e93b115" x="127.246094"/>
</g>
</g>
</g>
<g id="xtick4">
<g id="line2d9">
<g ><use style="fill: none; stroke: #000000; stroke-width: 0.500000; stroke-linejoin: round; stroke-linecap: butt;  opacity: 1.000000" xlink:href="#m30e32995789d870ad79a2e54c91cf9c6" x="1019.520000" y="801.900000"/>
</g></g>
<g id="line2d10">
<g ><use style="fill: none; stroke: #000000; stroke-width: 0.500000; stroke-linejoin: round; stroke-linecap: butt;  opacity: 1.000000" xlink:href="#m9281cae24120827b11d5ea8a7ad3e96b" x="1019.520000" y="89.100000"/>
</g></g>
<g id="text4">
<defs>
<path id="c_cc8d6d580d1b10c8632f7a42cd53db8a" d="M33.015625 -40.375000q-6.640625 0.000000 -10.531250 4.546875q-3.875000 4.531250 -3.875000 12.437500q0.000000 7.859375 3.875000 12.437500q3.890625 4.562500 10.531250 4.562500q6.640625 0.000000 10.515625 -4.562500q3.875000 -4.578125 3.875000 -12.437500q0.000000 -7.906250 -3.875000 -12.437500q-3.875000 -4.546875 -10.515625 -4.546875M52.593750 -71.296875l0.000000 8.984375q-3.718750 -1.750000 -7.500000 -2.671875q-3.781250 -0.937500 -7.500000 -0.937500q-9.765625 0.000000 -14.921875 6.593750q-5.140625 6.593750 -5.875000 19.921875q2.875000 -4.250000 7.218750 -6.515625q4.359375 -2.265625 9.578125 -2.265625q10.984375 0.000000 17.359375 6.671875q6.375000 6.656250 6.375000 18.125000q0.000000 11.234375 -6.640625 18.031250q-6.640625 6.781250 -17.671875 6.781250q-12.656250 0.000000 -19.343750 -9.687500q-6.687500 -9.703125 -6.687500 -28.109375q0.000000 -17.281250 8.203125 -27.562500q8.203125 -10.281250 22.015625 -10.281250q3.718750 0.000000 7.500000 0.734375q3.781250 0.734375 7.890625 2.187500"/>
</defs>
<g style="fill: #000000; opacity: 1.000000" transform="translate(1008.879375,814.806250)scale(0.120000)">
<use xlink:href="#c_cc8d6d580d1b10c8632f7a42cd53db8a"/>
<use xlink:href="#c_7a2040fe3b94fcd41d0a72c84e93b115" x="63.623047"/>
<use xlink:href="#c_7a2040fe3b94fcd41d0a72c84e93b115" x="127.246094"/>
</g>
</g>
</g>
<g id="xtick5">
<g id="line2d11">
<g ><use style="fill: none; stroke: #000000; stroke-width: 0.500000; stroke-linejoin: round; stroke-linecap: butt;  opacity: 1.000000" xlink:href="#m30e32995789d870ad79a2e54c91cf9c6" x="1287.360000" y="801.900000"/>
</g></g>
<g id="line2d12">
<g ><use style="fill: none; stroke: #000000; stroke-width: 0.500000; stroke-linejoin: round; stroke-linecap: butt;  opacity: 1.000000" xlink:href="#m9281cae24120827b11d5ea8a7ad3e96b" x="1287.360000" y="89.100000"/>
</g></g>
<g id="text5">
<defs>
<path id="c_bef35738d52871942e50b9de9b122bab" d="M31.781250 -34.625000q-7.031250 0.000000 -11.062500 3.765625q-4.015625 3.765625 -4.015625 10.343750q0.000000 6.593750 4.015625 10.359375q4.031250 3.765625 11.062500 3.765625q7.031250 0.000000 11.078125 -3.781250q4.062500 -3.796875 4.062500 -10.343750q0.000000 -6.578125 -4.031250 -10.343750q-4.015625 -3.765625 -11.109375 -3.765625M21.921875 -38.812500q-6.343750 -1.562500 -9.890625 -5.906250q-3.531250 -4.359375 -3.531250 -10.609375q0.000000 -8.734375 6.218750 -13.812500q6.234375 -5.078125 17.062500 -5.078125q10.890625 0.000000 17.093750 5.078125q6.203125 5.078125 6.203125 13.812500q0.000000 6.250000 -3.546875 10.609375q-3.531250 4.343750 -9.828125 5.906250q7.125000 1.656250 11.093750 6.500000q3.984375 4.828125 3.984375 11.796875q0.000000 10.609375 -6.468750 16.281250q-6.468750 5.656250 -18.531250 5.656250q-12.046875 0.000000 -18.531250 -5.656250q-6.468750 -5.671875 -6.468750 -16.281250q0.000000 -6.968750 4.000000 -11.796875q4.015625 -4.843750 11.140625 -6.500000M18.312500 -54.390625q0.000000 5.656250 3.531250 8.828125q3.546875 3.171875 9.937500 3.171875q6.359375 0.000000 9.937500 -3.171875q3.593750 -3.171875 3.593750 -8.828125q0.000000 -5.671875 -3.593750 -8.843750q-3.578125 -3.171875 -9.937500 -3.171875q-6.390625 0.000000 -9.937500 3.171875q-3.531250 3.171875 -3.531250 8.843750"/>
</defs>
<g style="fill: #000000; opacity: 1.000000" transform="translate(1276.703750,814.806250)scale(0.120000)">
<use xlink:href="#c_bef35738d52871942e50b9de9b122bab"/>
<use xlink:href="#c_7a2040fe3b94fcd41d0a72c84e93b115" x="63.623047"/>
<use xlink:href="#c_7a2040fe3b94fcd41d0a72c84e93b115" x="127.246094"/>
</g>
</g>
</g>
<g id="xtick6">
<g id="line2d13">
<g ><use style="fill: none; stroke: #000000; stroke-width: 0.500000; stroke-linejoin: round; stroke-linecap: butt;  opacity: 1.000000" xlink:href="#m30e32995789d870ad79a2e54c91cf9c6" x="1555.200000" y="801.900000"/>
</g></g>
<g id="line2d14">
<g ><use style="fill: none; stroke: #000000; stroke-width: 0.500000; stroke-linejoin: round; stroke-linecap: butt;  opacity: 1.000000" xlink:href="#m9281cae24120827b11d5ea8a7ad3e96b" x="1555.200000" y="89.100000"/>
</g></g>
<g id="text6">
<defs>
<path id="c_42baa63129a918535c52adb20d687ea7" d="M12.406250 -8.296875l16.109375 0.000000l0.000000 -55.625000l-17.531250 3.515625l0.000000 -8.984375l17.437500 -3.515625l9.859375 0.000000l0.000000 64.609375l16.109375 0.000000l0.000000 8.296875l-41.984375 0.000000z"/>
</defs>
<g style="fill: #000000; opacity: 1.000000" transform="translate(1540.973438,814.806250)scale(0.120000)">
<use xlink:href="#c_42baa63129a918535c52adb20d687ea7"/>
<use xlink:href="#c_7a2040fe3b94fcd41d0a72c84e93b115" x="63.623047"/>
<use xlink:href="#c_7a2040fe3b94fcd41d0a72c84e93b115" x="127.246094"/>
<use xlink:href="#c_7a2040fe3b94fcd41d0a72c84e93b115" x="190.869141"/>
</g>
</g>
</g>
<g id="text7">
<defs>
<path id="c_07e3f33241aff50afcba519606f2a979" d="M9.812500 -72.906250l9.859375 0.000000l0.000000 64.609375l35.500000 0.000000l0.000000 8.296875l-45.359375 0.000000z"/>
<path id="c_0bce5afba2dc6b9024b26277c38ad8e8" d="M56.203125 -29.593750l0.000000 4.390625l-41.312500 0.000000q0.593750 9.281250 5.593750 14.140625q5.000000 4.859375 13.937500 4.859375q5.171875 0.000000 10.031250 -1.265625q4.859375 -1.265625 9.656250 -3.812500l0.000000 8.500000q-4.843750 2.046875 -9.921875 3.125000q-5.078125 1.078125 -10.296875 1.078125q-13.093750 0.000000 -20.734375 -7.609375q-7.640625 -7.625000 -7.640625 -20.625000q0.000000 -13.421875 7.250000 -21.296875q7.250000 -7.890625 19.562500 -7.890625q11.031250 0.000000 17.453125 7.109375q6.421875 7.093750 6.421875 19.296875M47.218750 -32.234375q-0.093750 -7.359375 -4.125000 -11.750000q-4.031250 -4.406250 -10.671875 -4.406250q-7.515625 0.000000 -12.031250 4.250000q-4.515625 4.250000 -5.203125 11.968750z"/>
<path id="c_01d93a582460e35a7945ca50d148ffeb" d="M34.281250 -27.484375q-10.890625 0.000000 -15.093750 2.484375q-4.203125 2.484375 -4.203125 8.500000q0.000000 4.781250 3.156250 7.593750q3.156250 2.796875 8.562500 2.796875q7.484375 0.000000 12.000000 -5.296875q4.515625 -5.296875 4.515625 -14.078125l0.000000 -2.000000zM52.203125 -31.203125l0.000000 31.203125l-8.984375 0.000000l0.000000 -8.296875q-3.078125 4.968750 -7.671875 7.343750q-4.593750 2.375000 -11.234375 2.375000q-8.390625 0.000000 -13.359375 -4.718750q-4.953125 -4.718750 -4.953125 -12.625000q0.000000 -9.218750 6.171875 -13.906250q6.187500 -4.687500 18.437500 -4.687500l12.609375 0.000000l0.000000 -0.890625q0.000000 -6.203125 -4.078125 -9.593750q-4.078125 -3.390625 -11.453125 -3.390625q-4.687500 0.000000 -9.140625 1.125000q-4.437500 1.125000 -8.531250 3.375000l0.000000 -8.312500q4.921875 -1.906250 9.562500 -2.843750q4.640625 -0.953125 9.031250 -0.953125q11.875000 0.000000 17.734375 6.156250q5.859375 6.140625 5.859375 18.640625"/>
<path id="c_6ec8d5749226675394676a5d2a3b468b" d="M41.109375 -46.296875q-1.515625 -0.875000 -3.296875 -1.281250q-1.781250 -0.421875 -3.921875 -0.421875q-7.625000 0.000000 -11.703125 4.953125q-4.078125 4.953125 -4.078125 14.234375l0.000000 28.812500l-9.031250 0.000000l0.000000 -54.687500l9.031250 0.000000l0.000000 8.500000q2.843750 -4.984375 7.375000 -7.390625q4.546875 -2.421875 11.046875 -2.421875q0.921875 0.000000 2.046875 0.125000q1.125000 0.109375 2.484375 0.359375z"/>
<path id="c_fe791a90f5471e2ab20a5ed41a7fa451" d="M54.890625 -33.015625l0.000000 33.015625l-8.984375 0.000000l0.000000 -32.718750q0.000000 -7.765625 -3.031250 -11.609375q-3.031250 -3.859375 -9.078125 -3.859375q-7.281250 0.000000 -11.484375 4.640625q-4.203125 4.625000 -4.203125 12.640625l0.000000 30.906250l-9.031250 0.000000l0.000000 -54.687500l9.031250 0.000000l0.000000 8.500000q3.234375 -4.937500 7.593750 -7.375000q4.375000 -2.437500 10.093750 -2.437500q9.421875 0.000000 14.250000 5.828125q4.843750 5.828125 4.843750 17.156250"/>
<path id="c_6a63bda47b2f3da1cec6aadd80692cfe" d="M9.421875 -54.687500l8.984375 0.000000l0.000000 54.687500l-8.984375 0.000000zM9.421875 -75.984375l8.984375 0.000000l0.000000 11.390625l-8.984375 0.000000z"/>
<path id="c_e3864de5dabf2f8dd9eee74726882ec1" d="M45.406250 -27.984375q0.000000 -9.765625 -4.031250 -15.125000q-4.015625 -5.375000 -11.296875 -5.375000q-7.218750 0.000000 -11.250000 5.375000q-4.031250 5.359375 -4.031250 15.125000q0.000000 9.718750 4.031250 15.093750q4.031250 5.375000 11.250000 5.375000q7.281250 0.000000 11.296875 -5.375000q4.031250 -5.375000 4.031250 -15.093750M54.390625 -6.781250q0.000000 13.953125 -6.203125 20.765625q-6.187500 6.812500 -18.984375 6.812500q-4.734375 0.000000 -8.937500 -0.703125q-4.203125 -0.703125 -8.156250 -2.171875l0.000000 -8.734375q3.953125 2.140625 7.812500 3.156250q3.859375 1.031250 7.859375 1.031250q8.843750 0.000000 13.234375 -4.609375q4.390625 -4.609375 4.390625 -13.937500l0.000000 -4.453125q-2.781250 4.843750 -7.125000 7.234375q-4.343750 2.390625 -10.406250 2.390625q-10.046875 0.000000 -16.203125 -7.656250q-6.156250 -7.671875 -6.156250 -20.328125q0.000000 -12.687500 6.156250 -20.343750q6.156250 -7.671875 16.203125 -7.671875q6.062500 0.000000 10.406250 2.390625q4.343750 2.390625 7.125000 7.218750l0.000000 -8.296875l8.984375 0.000000z"/>
<path id="c_d41d8cd98f00b204e9800998ecf8427e" d=""/>
<path id="c_0f8c41144cfbf448378cb6fd1cc8e549" d="M18.312500 -70.218750l0.000000 15.531250l18.500000 0.000000l0.000000 6.984375l-18.500000 0.000000l0.000000 29.687500q0.000000 6.687500 1.828125 8.593750q1.828125 1.906250 7.453125 1.906250l9.218750 0.000000l0.000000 7.515625l-9.218750 0.000000q-10.406250 0.000000 -14.359375 -3.875000q-3.953125 -3.890625 -3.953125 -14.140625l0.000000 -29.687500l-6.593750 0.000000l0.000000 -6.984375l6.593750 0.000000l0.000000 -15.531250z"/>
<path id="c_f05dd90d41f04bb96ef1ca503cc2044b" d="M30.609375 -48.390625q-7.218750 0.000000 -11.421875 5.640625q-4.203125 5.640625 -4.203125 15.453125q0.000000 9.812500 4.171875 15.453125q4.187500 5.640625 11.453125 5.640625q7.187500 0.000000 11.375000 -5.656250q4.203125 -5.671875 4.203125 -15.437500q0.000000 -9.718750 -4.203125 -15.406250q-4.187500 -5.687500 -11.375000 -5.687500M30.609375 -56.000000q11.718750 0.000000 18.406250 7.625000q6.703125 7.609375 6.703125 21.078125q0.000000 13.421875 -6.703125 21.078125q-6.687500 7.640625 -18.406250 7.640625q-11.765625 0.000000 -18.437500 -7.640625q-6.656250 -7.656250 -6.656250 -21.078125q0.000000 -13.468750 6.656250 -21.078125q6.671875 -7.625000 18.437500 -7.625000"/>
</defs>
<g style="fill: #000000; opacity: 1.000000" transform="translate(832.826563,829.103125)scale(0.120000)">
<use xlink:href="#c_07e3f33241aff50afcba519606f2a979"/>
<use xlink:href="#c_0bce5afba2dc6b9024b26277c38ad8e8" x="53.962891"/>
<use xlink:href="#c_01d93a582460e35a7945ca50d148ffeb" x="115.486328"/>
<use xlink:href="#c_6ec8d5749226675394676a5d2a3b468b" x="176.765625"/>
<use xlink:href="#c_fe791a90f5471e2ab20a5ed41a7fa451" x="216.128906"/>
<use xlink:href="#c_6a63bda47b2f3da1cec6aadd80692cfe" x="279.507812"/>
<use xlink:href="#c_fe791a90f5471e2ab20a5ed41a7fa451" x="307.291016"/>
<use xlink:href="#c_e3864de5dabf2f8dd9eee74726882ec1" x="370.669922"/>
<use xlink:href="#c_d41d8cd98f00b204e9800998ecf8427e" x="434.146484"/>
<use xlink:href="#c_6a63bda47b2f3da1cec6aadd80692cfe" x="465.933594"/>
<use xlink:href="#c_0f8c41144cfbf448378cb6fd1cc8e549" x="493.716797"/>
<use xlink:href="#c_0bce5afba2dc6b9024b26277c38ad8e8" x="532.925781"/>
<use xlink:href="#c_6ec8d5749226675394676a5d2a3b468b" x="594.449219"/>
<use xlink:href="#c_01d93a582460e35a7945ca50d148ffeb" x="635.562500"/>
<use xlink:href="#c_0f8c41144cfbf448378cb6fd1cc8e549" x="696.841797"/>
<use xlink:href="#c_6a63bda47b2f3da1cec6aadd80692cfe" x="736.050781"/>
<use xlink:href="#c_f05dd90d41f04bb96ef1ca503cc2044b" x="763.833984"/>
<use xlink:href="#c_fe791a90f5471e2ab20a5ed41a7fa451" x="825.015625"/>
</g>
</g>
</g>
<g id="matplotlib.axis2">
<g id="ytick1">
<g id="line2d15">
<defs><path id="m3400efa6b1638b3fea9e19e898273957" d="M0.000000 0.000000L4.000000 0.000000"/></defs>
<g ><use style="fill: none; stroke: #000000; stroke-width: 0.500000; stroke-linejoin: round; stroke-linecap: butt;  opacity: 1.000000" xlink:href="#m3400efa6b1638b3fea9e19e898273957" x="216.000000" y="700.843832"/>
</g></g>
<g id="line2d16">
<defs><path id="m20b58b2501143cb5e0a5e8f1ef6f1643" d="M0.000000 0.000000L-4.000000 0.000000"/></defs>
<g ><use style="fill: none; stroke: #000000; stroke-width: 0.500000; stroke-linejoin: round; stroke-linecap: butt;  opacity: 1.000000" xlink:href="#m20b58b2501143cb5e0a5e8f1ef6f1643" x="1555.200000" y="700.843832"/>
</g></g>
<g id="text8">
<defs>
<path id="c_ed3e21196fb739f392806f09ca0594ef" d="M10.687500 -12.406250l10.312500 0.000000l0.000000 12.406250l-10.312500 0.000000z"/>
<path id="c_3dcfa38a02242cb63ec6726c6e70be7a" d="M40.578125 -39.312500q7.078125 1.515625 11.046875 6.312500q3.984375 4.781250 3.984375 11.812500q0.000000 10.781250 -7.421875 16.703125q-7.421875 5.906250 -21.093750 5.906250q-4.578125 0.000000 -9.437500 -0.906250q-4.859375 -0.906250 -10.031250 -2.718750l0.000000 -9.515625q4.093750 2.390625 8.968750 3.609375q4.890625 1.218750 10.218750 1.218750q9.265625 0.000000 14.125000 -3.656250q4.859375 -3.656250 4.859375 -10.640625q0.000000 -6.453125 -4.515625 -10.078125q-4.515625 -3.640625 -12.562500 -3.640625l-8.500000 0.000000l0.000000 -8.109375l8.890625 0.000000q7.265625 0.000000 11.125000 -2.906250q3.859375 -2.906250 3.859375 -8.375000q0.000000 -5.609375 -3.984375 -8.609375q-3.968750 -3.015625 -11.390625 -3.015625q-4.062500 0.000000 -8.703125 0.890625q-4.640625 0.875000 -10.203125 2.718750l0.000000 -8.781250q5.625000 -1.562500 10.531250 -2.343750q4.906250 -0.781250 9.250000 -0.781250q11.234375 0.000000 17.765625 5.109375q6.546875 5.093750 6.546875 13.781250q0.000000 6.062500 -3.468750 10.234375q-3.468750 4.171875 -9.859375 5.781250"/>
</defs>
<g style="fill: #000000; opacity: 1.000000" transform="translate(194.671875,705.211020)scale(0.120000)">
<use xlink:href="#c_7a2040fe3b94fcd41d0a72c84e93b115"/>
<use xlink:href="#c_ed3e21196fb739f392806f09ca0594ef" x="63.623047"/>
<use xlink:href="#c_3dcfa38a02242cb63ec6726c6e70be7a" x="95.410156"/>
</g>
</g>
</g>
<g id="ytick2">
<g id="line2d17">
<g ><use style="fill: none; stroke: #000000; stroke-width: 0.500000; stroke-linejoin: round; stroke-linecap: butt;  opacity: 1.000000" xlink:href="#m3400efa6b1638b3fea9e19e898273957" x="216.000000" y="598.886527"/>
</g></g>
<g id="line2d18">
<g ><use style="fill: none; stroke: #000000; stroke-width: 0.500000; stroke-linejoin: round; stroke-linecap: butt;  opacity: 1.000000" xlink:href="#m20b58b2501143cb5e0a5e8f1ef6f1643" x="1555.200000" y="598.886527"/>
</g></g>
<g id="text9">
<g style="fill: #000000; opacity: 1.000000" transform="translate(194.375000,603.253715)scale(0.120000)">
<use xlink:href="#c_7a2040fe3b94fcd41d0a72c84e93b115"/>
<use xlink:href="#c_ed3e21196fb739f392806f09ca0594ef" x="63.623047"/>
<use xlink:href="#c_a0416418d96557a09b8c1332d34883ba" x="95.410156"/>
</g>
</g>
</g>
<g id="ytick3">
<g id="line2d19">
<g ><use style="fill: none; stroke: #000000; stroke-width: 0.500000; stroke-linejoin: round; stroke-linecap: butt;  opacity: 1.000000" xlink:href="#m3400efa6b1638b3fea9e19e898273957" x="216.000000" y="496.929222"/>
</g></g>
<g id="line2d20">
<g ><use style="fill: none; stroke: #000000; stroke-width: 0.500000; stroke-linejoin: round; stroke-linecap: butt;  opacity: 1.000000" xlink:href="#m20b58b2501143cb5e0a5e8f1ef6f1643" x="1555.200000" y="496.929222"/>
</g></g>
<g id="text10">
<defs>
<path id="c_1260a2df50f305f3db244e29828f968e" d="M10.796875 -72.906250l38.718750 0.000000l0.000000 8.312500l-29.687500 0.000000l0.000000 17.859375q2.140625 -0.734375 4.281250 -1.093750q2.156250 -0.359375 4.312500 -0.359375q12.203125 0.000000 19.328125 6.687500q7.140625 6.687500 7.140625 18.109375q0.000000 11.765625 -7.328125 18.296875q-7.328125 6.515625 -20.656250 6.515625q-4.593750 0.000000 -9.359375 -0.781250q-4.750000 -0.781250 -9.828125 -2.343750l0.000000 -9.921875q4.390625 2.390625 9.078125 3.562500q4.687500 1.171875 9.906250 1.171875q8.453125 0.000000 13.375000 -4.437500q4.937500 -4.437500 4.937500 -12.062500q0.000000 -7.609375 -4.937500 -12.046875q-4.921875 -4.453125 -13.375000 -4.453125q-3.953125 0.000000 -7.890625 0.875000q-3.921875 0.875000 -8.015625 2.734375z"/>
</defs>
<g style="fill: #000000; opacity: 1.000000" transform="translate(194.750000,501.296409)scale(0.120000)">
<use xlink:href="#c_7a2040fe3b94fcd41d0a72c84e93b115"/>
<use xlink:href="#c_ed3e21196fb739f392806f09ca0594ef" x="63.623047"/>
<use xlink:href="#c_1260a2df50f305f3db244e29828f968e" x="95.410156"/>
</g>
</g>
</g>
<g id="ytick4">
<g id="line2d21">
<g ><use style="fill: none; stroke: #000000; stroke-width: 0.500000; stroke-linejoin: round; stroke-linecap: butt;  opacity: 1.000000" xlink:href="#m3400efa6b1638b3fea9e19e898273957" x="216.000000" y="394.971916"/>
</g></g>
<g id="line2d22">
<g ><use style="fill: none; stroke: #000000; stroke-width: 0.500000; stroke-linejoin: round; stroke-linecap: butt;  opacity: 1.000000" xlink:href="#m20b58b2501143cb5e0a5e8f1ef6f1643" x="1555.200000" y="394.971916"/>
</g></g>
<g id="text11">
<g style="fill: #000000; opacity: 1.000000" transform="translate(194.468750,399.339104)scale(0.120000)">
<use xlink:href="#c_7a2040fe3b94fcd41d0a72c84e93b115"/>
<use xlink:href="#c_ed3e21196fb739f392806f09ca0594ef" x="63.623047"/>
<use xlink:href="#c_cc8d6d580d1b10c8632f7a42cd53db8a" x="95.410156"/>
</g>
</g>
</g>
<g id="ytick5">
<g id="line2d23">
<g ><use style="fill: none; stroke: #000000; stroke-width: 0.500000; stroke-linejoin: round; stroke-linecap: butt;  opacity: 1.000000" xlink:href="#m3400efa6b1638b3fea9e19e898273957" x="216.000000" y="293.014611"/>
</g></g>
<g id="line2d24">
<g ><use style="fill: none; stroke: #000000; stroke-width: 0.500000; stroke-linejoin: round; stroke-linecap: butt;  opacity: 1.000000" xlink:href="#m20b58b2501143cb5e0a5e8f1ef6f1643" x="1555.200000" y="293.014611"/>
</g></g>
<g id="text12">
<defs>
<path id="c_956f18cfdaf972f35a6c2b4aaac2532b" d="M8.203125 -72.906250l46.875000 0.000000l0.000000 4.203125l-26.468750 68.703125l-10.296875 0.000000l24.906250 -64.593750l-35.015625 0.000000z"/>
</defs>
<g style="fill: #000000; opacity: 1.000000" transform="translate(194.734375,297.381798)scale(0.120000)">
<use xlink:href="#c_7a2040fe3b94fcd41d0a72c84e93b115"/>
<use xlink:href="#c_ed3e21196fb739f392806f09ca0594ef" x="63.623047"/>
<use xlink:href="#c_956f18cfdaf972f35a6c2b4aaac2532b" x="95.410156"/>
</g>
</g>
</g>
<g id="ytick6">
<g id="line2d25">
<g ><use style="fill: none; stroke: #000000; stroke-width: 0.500000; stroke-linejoin: round; stroke-linecap: butt;  opacity: 1.000000" xlink:href="#m3400efa6b1638b3fea9e19e898273957" x="216.000000" y="191.057305"/>
</g></g>
<g id="line2d26">
<g ><use style="fill: none; stroke: #000000; stroke-width: 0.500000; stroke-linejoin: round; stroke-linecap: butt;  opacity: 1.000000" xlink:href="#m20b58b2501143cb5e0a5e8f1ef6f1643" x="1555.200000" y="191.057305"/>
</g></g>
<g id="text13">
<g style="fill: #000000; opacity: 1.000000" transform="translate(194.531250,195.424493)scale(0.120000)">
<use xlink:href="#c_7a2040fe3b94fcd41d0a72c84e93b115"/>
<use xlink:href="#c_ed3e21196fb739f392806f09ca0594ef" x="63.623047"/>
<use xlink:href="#c_bef35738d52871942e50b9de9b122bab" x="95.410156"/>
</g>
</g>
</g>
<g id="ytick7">
<g id="line2d27">
<g ><use style="fill: none; stroke: #000000; stroke-width: 0.500000; stroke-linejoin: round; stroke-linecap: butt;  opacity: 1.000000" xlink:href="#m3400efa6b1638b3fea9e19e898273957" x="216.000000" y="89.100000"/>
</g></g>
<g id="line2d28">
<g ><use style="fill: none; stroke: #000000; stroke-width: 0.500000; stroke-linejoin: round; stroke-linecap: butt;  opacity: 1.000000" xlink:href="#m20b58b2501143cb5e0a5e8f1ef6f1643" x="1555.200000" y="89.100000"/>
</g></g>
<g id="text14">
<defs>
<path id="c_cd96f817f3cab988d24a2b49a5577fe6" d="M10.984375 -1.515625l0.000000 -8.984375q3.718750 1.765625 7.515625 2.687500q3.812500 0.921875 7.484375 0.921875q9.765625 0.000000 14.906250 -6.562500q5.156250 -6.562500 5.890625 -19.953125q-2.828125 4.203125 -7.187500 6.453125q-4.343750 2.250000 -9.609375 2.250000q-10.937500 0.000000 -17.312500 -6.609375q-6.375000 -6.625000 -6.375000 -18.109375q0.000000 -11.218750 6.640625 -18.000000q6.640625 -6.796875 17.671875 -6.796875q12.656250 0.000000 19.312500 9.703125q6.671875 9.687500 6.671875 28.140625q0.000000 17.234375 -8.187500 27.515625q-8.171875 10.281250 -21.984375 10.281250q-3.718750 0.000000 -7.531250 -0.734375q-3.796875 -0.734375 -7.906250 -2.203125M30.609375 -32.421875q6.640625 0.000000 10.515625 -4.531250q3.890625 -4.546875 3.890625 -12.468750q0.000000 -7.859375 -3.890625 -12.421875q-3.875000 -4.562500 -10.515625 -4.562500q-6.640625 0.000000 -10.515625 4.562500q-3.875000 4.562500 -3.875000 12.421875q0.000000 7.921875 3.875000 12.468750q3.875000 4.531250 10.515625 4.531250"/>
</defs>
<g style="fill: #000000; opacity: 1.000000" transform="translate(194.546875,93.467188)scale(0.120000)">
<use xlink:href="#c_7a2040fe3b94fcd41d0a72c84e93b115"/>
<use xlink:href="#c_ed3e21196fb739f392806f09ca0594ef" x="63.623047"/>
<use xlink:href="#c_cd96f817f3cab988d24a2b49a5577fe6" x="95.410156"/>
</g>
</g>
</g>
<g id="text15">
<defs>
<path id="c_a61a29e824874b7d7ff806198f94f785" d="M3.328125 -72.906250l9.953125 0.000000l15.328125 61.625000l15.281250 -61.625000l11.093750 0.000000l15.328125 61.625000l15.281250 -61.625000l10.015625 0.000000l-18.312500 72.906250l-12.406250 0.000000l-15.375000 -63.281250l-15.531250 63.281250l-12.406250 0.000000z"/>
<path id="c_9c6d5cbc59c6231647eb409cc6b37bb3" d="M25.390625 -72.906250l8.296875 0.000000l-25.390625 82.187500l-8.296875 0.000000z"/>
<path id="c_8e0810ad13fe20a2a87a2619799b154d" d="M44.281250 -53.078125l0.000000 8.500000q-3.796875 -1.953125 -7.906250 -2.921875q-4.093750 -0.984375 -8.500000 -0.984375q-6.687500 0.000000 -10.031250 2.046875q-3.343750 2.046875 -3.343750 6.156250q0.000000 3.125000 2.390625 4.906250q2.390625 1.781250 9.625000 3.390625l3.078125 0.687500q9.562500 2.046875 13.593750 5.781250q4.031250 3.734375 4.031250 10.421875q0.000000 7.625000 -6.031250 12.078125q-6.031250 4.437500 -16.578125 4.437500q-4.390625 0.000000 -9.156250 -0.859375q-4.765625 -0.859375 -10.031250 -2.562500l0.000000 -9.281250q4.984375 2.593750 9.812500 3.890625q4.828125 1.281250 9.578125 1.281250q6.343750 0.000000 9.750000 -2.171875q3.421875 -2.171875 3.421875 -6.125000q0.000000 -3.656250 -2.468750 -5.609375q-2.453125 -1.953125 -10.812500 -3.765625l-3.125000 -0.734375q-8.343750 -1.750000 -12.062500 -5.390625q-3.703125 -3.640625 -3.703125 -9.984375q0.000000 -7.718750 5.468750 -11.906250q5.468750 -4.203125 15.531250 -4.203125q4.968750 0.000000 9.359375 0.734375q4.406250 0.718750 8.109375 2.187500"/>
</defs>
<g style="fill: #000000; opacity: 1.000000" transform="translate(189.375000,474.351563)rotate(-90.0)scale(0.120000)">
<use xlink:href="#c_a61a29e824874b7d7ff806198f94f785"/>
<use xlink:href="#c_6a63bda47b2f3da1cec6aadd80692cfe" x="96.626953"/>
<use xlink:href="#c_fe791a90f5471e2ab20a5ed41a7fa451" x="124.410156"/>
<use xlink:href="#c_d41d8cd98f00b204e9800998ecf8427e" x="187.789063"/>
<use xlink:href="#c_9c6d5cbc59c6231647eb409cc6b37bb3" x="219.576172"/>
<use xlink:href="#c_d41d8cd98f00b204e9800998ecf8427e" x="253.267578"/>
<use xlink:href="#c_07e3f33241aff50afcba519606f2a979" x="285.054688"/>
<use xlink:href="#c_f05dd90d41f04bb96ef1ca503cc2044b" x="339.017578"/>
<use xlink:href="#c_8e0810ad13fe20a2a87a2619799b154d" x="400.199219"/>
<use xlink:href="#c_8e0810ad13fe20a2a87a2619799b154d" x="452.298828"/>
</g>
</g>
</g>
<g id="patch3">
<path style="fill: none; stroke: #000000; stroke-width: 1.000000; stroke-linejoin: round; stroke-linecap: square;  opacity: 1.000000"  d="M216.000000 89.100000L1555.200000 89.100000"/>
</g>
<g id="patch4">
<path style="fill: none; stroke: #000000; stroke-width: 1.000000; stroke-linejoin: round; stroke-linecap: square;  opacity: 1.000000"  d="M1555.200000 801.900000L1555.200000 89.100000"/>
</g>
<g id="patch5">
<path style="fill: none; stroke: #000000; stroke-width: 1.000000; stroke-linejoin: round; stroke-linecap: square;  opacity: 1.000000"  d="M216.000000 801.900000L1555.200000 801.900000"/>
</g>
<g id="patch6">
<path style="fill: none; stroke: #000000; stroke-width: 1.000000; stroke-linejoin: round; stroke-linecap: square;  opacity: 1.000000"  d="M216.000000 801.900000L216.000000 89.100000"/>
</g>
<g id="legend1">
<g id="patch7">
<path style="fill: #4d4d4d; stroke: #4d4d4d; stroke-width: 1.000000; stroke-linejoin: round; stroke-linecap: square;  opacity: 0.500000"  d="M1293.925625 144.113750L1550.000000 144.113750L1550.000000 98.300000
L1293.925625 98.300000L1293.925625 144.113750z"/>
</g>
<g id="patch8">
<path style="fill: #ffffff; stroke: #000000; stroke-width: 1.000000; stroke-linejoin: round; stroke-linecap: square;  opacity: 1.000000"  d="M1291.925625 142.113750L1548.000000 142.113750L1548.000000 96.300000
L1291.925625 96.300000L1291.925625 142.113750z"/>
</g>
<g id="line2d29">
<path style="fill: none; stroke: #0000ff; stroke-width: 1.000000; stroke-linejoin: round; stroke-linecap: square;  opacity: 1.000000"  d="M1302.005625 107.660625L1322.165625 107.660625"/>
</g>
<g id="line2d30">
</g>
<g id="text16">
<defs>
<path id="c_4c6532c564269b2c70b230c2e45c01e4" d="M44.390625 -34.187500q3.171875 1.078125 6.171875 4.593750q3.000000 3.515625 6.031250 9.671875l10.015625 19.921875l-10.609375 0.000000l-9.312500 -18.703125q-3.625000 -7.328125 -7.015625 -9.718750q-3.390625 -2.390625 -9.250000 -2.390625l-10.750000 0.000000l0.000000 30.812500l-9.859375 0.000000l0.000000 -72.906250l22.265625 0.000000q12.500000 0.000000 18.656250 5.234375q6.156250 5.218750 6.156250 15.765625q0.000000 6.890625 -3.203125 11.437500q-3.203125 4.531250 -9.296875 6.281250M19.671875 -64.796875l0.000000 25.875000l12.406250 0.000000q7.125000 0.000000 10.765625 -3.296875q3.640625 -3.296875 3.640625 -9.687500q0.000000 -6.390625 -3.640625 -9.640625q-3.640625 -3.250000 -10.765625 -3.250000z"/>
<path id="c_3b515ad41f960e225ec85275856806ca" d="M8.500000 -21.578125l0.000000 -33.109375l8.984375 0.000000l0.000000 32.765625q0.000000 7.765625 3.015625 11.656250q3.031250 3.875000 9.093750 3.875000q7.265625 0.000000 11.484375 -4.640625q4.234375 -4.640625 4.234375 -12.656250l0.000000 -31.000000l8.984375 0.000000l0.000000 54.687500l-8.984375 0.000000l0.000000 -8.406250q-3.265625 4.984375 -7.593750 7.406250q-4.312500 2.421875 -10.031250 2.421875q-9.421875 0.000000 -14.312500 -5.859375q-4.875000 -5.859375 -4.875000 -17.140625M31.109375 -56.000000z"/>
<path id="c_c48ceabac27bf136feba2f4bf2716ab6" d="M2.984375 -54.687500l9.515625 0.000000l17.093750 45.890625l17.093750 -45.890625l9.515625 0.000000l-20.515625 54.687500l-12.203125 0.000000z"/>
</defs>
<g style="fill: #000000; opacity: 1.000000" transform="translate(1338.005625,112.700625)scale(0.144000)">
<use xlink:href="#c_4c6532c564269b2c70b230c2e45c01e4"/>
<use xlink:href="#c_3b515ad41f960e225ec85275856806ca" x="64.982422"/>
<use xlink:href="#c_fe791a90f5471e2ab20a5ed41a7fa451" x="128.361328"/>
<use xlink:href="#c_fe791a90f5471e2ab20a5ed41a7fa451" x="191.740234"/>
<use xlink:href="#c_6a63bda47b2f3da1cec6aadd80692cfe" x="255.119141"/>
<use xlink:href="#c_fe791a90f5471e2ab20a5ed41a7fa451" x="282.902344"/>
<use xlink:href="#c_e3864de5dabf2f8dd9eee74726882ec1" x="346.281250"/>
<use xlink:href="#c_d41d8cd98f00b204e9800998ecf8427e" x="409.757813"/>
<use xlink:href="#c_01d93a582460e35a7945ca50d148ffeb" x="441.544922"/>
<use xlink:href="#c_c48ceabac27bf136feba2f4bf2716ab6" x="502.824219"/>
<use xlink:href="#c_0bce5afba2dc6b9024b26277c38ad8e8" x="562.003906"/>
<use xlink:href="#c_6ec8d5749226675394676a5d2a3b468b" x="623.527344"/>
<use xlink:href="#c_01d93a582460e35a7945ca50d148ffeb" x="664.640625"/>
<use xlink:href="#c_e3864de5dabf2f8dd9eee74726882ec1" x="725.919922"/>
<use xlink:href="#c_0bce5afba2dc6b9024b26277c38ad8e8" x="789.396484"/>
</g>
</g>
<g id="line2d31">
<path style="fill: none; stroke: #008000; stroke-width: 1.000000; stroke-linejoin: round; stroke-linecap: square;  opacity: 1.000000"  d="M1302.005625 128.407500L1322.165625 128.407500"/>
</g>
<g id="line2d32">
</g>
<g id="text17">
<defs>
<path id="c_dbe439baa035de1a298d0549b22269d8" d="M9.812500 -72.906250l46.093750 0.000000l0.000000 8.312500l-36.234375 0.000000l0.000000 21.578125l34.718750 0.000000l0.000000 8.296875l-34.718750 0.000000l0.000000 26.421875l37.109375 0.000000l0.000000 8.296875l-46.968750 0.000000z"/>
<path id="c_801fe2e877fad46da27c898b407b3b54" d="M54.890625 -54.687500l-19.781250 26.609375l20.796875 28.078125l-10.593750 0.000000l-15.921875 -21.484375l-15.906250 21.484375l-10.609375 0.000000l21.250000 -28.609375l-19.437500 -26.078125l10.593750 0.000000l14.500000 19.484375l14.500000 -19.484375z"/>
<path id="c_f15a64fcd463ef4629c48bab42cde24c" d="M18.109375 -8.203125l0.000000 29.000000l-9.031250 0.000000l0.000000 -75.484375l9.031250 0.000000l0.000000 8.296875q2.843750 -4.875000 7.156250 -7.234375q4.328125 -2.375000 10.328125 -2.375000q9.968750 0.000000 16.187500 7.906250q6.234375 7.906250 6.234375 20.796875q0.000000 12.890625 -6.234375 20.812500q-6.218750 7.906250 -16.187500 7.906250q-6.000000 0.000000 -10.328125 -2.375000q-4.312500 -2.375000 -7.156250 -7.250000M48.687500 -27.296875q0.000000 -9.906250 -4.078125 -15.546875q-4.078125 -5.640625 -11.203125 -5.640625q-7.140625 0.000000 -11.218750 5.640625q-4.078125 5.640625 -4.078125 15.546875q0.000000 9.906250 4.078125 15.546875q4.078125 5.640625 11.218750 5.640625q7.125000 0.000000 11.203125 -5.640625q4.078125 -5.640625 4.078125 -15.546875"/>
<path id="c_5099edb83619131346ae654950954dea" d="M9.421875 -75.984375l8.984375 0.000000l0.000000 75.984375l-8.984375 0.000000z"/>
<path id="c_72234ddc5dcad8d05c893ef0371171da" d="M9.812500 -72.906250l14.703125 0.000000l18.593750 49.609375l18.703125 -49.609375l14.703125 0.000000l0.000000 72.906250l-9.625000 0.000000l0.000000 -64.015625l-18.796875 50.000000l-9.906250 0.000000l-18.796875 -50.000000l0.000000 64.015625l-9.578125 0.000000z"/>
</defs>
<g style="fill: #000000; opacity: 1.000000" transform="translate(1338.005625,133.447500)scale(0.144000)">
<use xlink:href="#c_dbe439baa035de1a298d0549b22269d8"/>
<use xlink:href="#c_801fe2e877fad46da27c898b407b3b54" x="63.183594"/>
<use xlink:href="#c_f15a64fcd463ef4629c48bab42cde24c" x="122.363281"/>
<use xlink:href="#c_f05dd90d41f04bb96ef1ca503cc2044b" x="185.839844"/>
<use xlink:href="#c_fe791a90f5471e2ab20a5ed41a7fa451" x="247.021484"/>
<use xlink:href="#c_0bce5afba2dc6b9024b26277c38ad8e8" x="310.400391"/>
<use xlink:href="#c_fe791a90f5471e2ab20a5ed41a7fa451" x="371.923828"/>
<use xlink:href="#c_0f8c41144cfbf448378cb6fd1cc8e549" x="435.302734"/>
<use xlink:href="#c_6a63bda47b2f3da1cec6aadd80692cfe" x="474.511719"/>
<use xlink:href="#c_01d93a582460e35a7945ca50d148ffeb" x="502.294922"/>
<use xlink:href="#c_5099edb83619131346ae654950954dea" x="563.574219"/>
<use xlink:href="#c_d41d8cd98f00b204e9800998ecf8427e" x="591.357422"/>
<use xlink:href="#c_72234ddc5dcad8d05c893ef0371171da" x="623.144531"/>
<use xlink:href="#c_f05dd90d41f04bb96ef1ca503cc2044b" x="709.423828"/>
<use xlink:href="#c_c48ceabac27bf136feba2f4bf2716ab6" x="770.605469"/>
<use xlink:href="#c_6a63bda47b2f3da1cec6aadd80692cfe" x="829.785156"/>
<use xlink:href="#c_fe791a90f5471e2ab20a5ed41a7fa451" x="857.568359"/>
<use xlink:href="#c_e3864de5dabf2f8dd9eee74726882ec1" x="920.947266"/>
<use xlink:href="#c_d41d8cd98f00b204e9800998ecf8427e" x="984.423828"/>
<use xlink:href="#c_01d93a582460e35a7945ca50d148ffeb" x="1016.210938"/>
<use xlink:href="#c_c48ceabac27bf136feba2f4bf2716ab6" x="1077.490234"/>
<use xlink:href="#c_0bce5afba2dc6b9024b26277c38ad8e8" x="1136.669922"/>
<use xlink:href="#c_6ec8d5749226675394676a5d2a3b468b" x="1198.193359"/>
<use xlink:href="#c_01d93a582460e35a7945ca50d148ffeb" x="1239.306641"/>
<use xlink:href="#c_e3864de5dabf2f8dd9eee74726882ec1" x="1300.585938"/>
<use xlink:href="#c_0bce5afba2dc6b9024b26277c38ad8e8" x="1364.062500"/>
</g>
</g>
</g>
</g>
</g>
</svg>
